<?xml version="1.0" encoding="UTF-8"?>
<svg id="Layer_2" data-name="Layer 2" xmlns="http://www.w3.org/2000/svg" viewBox="0 0 900 900">
  <defs>
    <style>
      .cls-1 {
        fill: #469c45;
      }

      .cls-2 {
        fill: #be1e2d;
      }

      .cls-3 {
        fill: #fff3c7;
      }
    </style>
  </defs>
  <g id="Layer_1-2" data-name="Layer 1">
    <g id="ficon_karate" data-name="ficon karate">
      <circle class="cls-1" cx="450" cy="450" r="450"/>
      <g>
        <path class="cls-3" d="M475.17,48.75c-5.47,2.41-10.31,5.31-14.53,8.68-4.22,3.38-8.01,6.9-11.38,10.56l-5.5-2.76c1.55-2.82,2.93-5.16,4.15-7.02,1.21-1.86,2.63-3.78,4.24-5.79-2.27,1.11-4.42,2.21-6.46,3.31-2.04,1.1-4.12,2.37-6.24,3.82-2.13,1.46-4.41,3.16-6.85,5.11-2.44,1.95-5.26,4.34-8.46,7.17.24,3.16,1.69,6.88,4.37,11.15,2.67,4.27,5.97,8.55,9.88,12.85,3.91,4.29,8.12,8.3,12.64,12.02,4.52,3.72,8.73,6.61,12.65,8.67l-14.14,11.48c-4.59-3.18-8.95-6.71-13.06-10.58-4.12-3.87-7.72-7.65-10.83-11.36-3.1-3.71-5.58-7.26-7.42-10.65s-2.85-6.26-3.03-8.6c-.24-3.16.65-5.46,2.66-6.91l-1-1.51c-1.7.83-3.29,1.96-4.78,3.36-1.48,1.41-2.9,3.28-4.26,5.62-1.35,2.34-2.67,5.17-3.95,8.5-1.28,3.33-2.62,7.41-4.02,12.22-1.39,4.93-2.66,8.91-3.78,11.93-1.12,3.03-2.15,5.4-3.08,7.12-.93,1.72-1.81,2.9-2.65,3.55-.83.65-1.66,1.01-2.48,1.07-1.64.12-3.26-.29-4.86-1.22-1.6-.94-3.07-2.12-4.42-3.55-1.34-1.43-2.45-2.87-3.33-4.34-.88-1.46-1.35-2.72-1.43-3.78-.1-1.29-.1-2.46,0-3.53.1-1.07.42-2.21.98-3.43.55-1.22,1.33-2.6,2.34-4.15,1-1.54,2.36-3.44,4.07-5.69,2.25-2.99,4.31-6.09,6.18-9.29,1.88-3.2,3.42-6.9,4.64-11.12,1.21-4.21,2.02-9.07,2.43-14.57.41-5.5.27-12.05-.42-19.65l21.07-6.17c-.09,3.42-.27,6.61-.51,9.57-.25,2.96-.65,5.85-1.2,8.65-.56,2.81-1.22,5.71-1.99,8.71-.78,3-1.74,6.25-2.89,9.75,5.84-6.79,11.09-12.54,15.74-17.24,4.65-4.7,9.18-8.99,13.59-12.85,2.76-2.44,5.57-4.51,8.45-6.2,2.87-1.68,5.3-2.6,7.29-2.75,3.74-.28,10.93,3,21.57,9.85Z"/>
        <path class="cls-3" d="M553.53,144.17c-.84-5.3-1.33-10.29-1.47-14.99-.15-4.7.15-9.92.88-15.66-3.35-2.06-6.84-3.7-10.47-4.92-3.63-1.22-8.2-2.4-13.71-3.56-6.59,4.99-12.21,9.05-16.87,12.16-4.66,3.12-8.6,5.51-11.8,7.18-3.21,1.67-5.75,2.75-7.63,3.24-1.88.5-3.28.62-4.18.39-3.64-.92-4.61-4.73-2.91-11.45.55-2.16,1.29-4.03,2.24-5.61.94-1.58,2.44-2.95,4.49-4.13,2.05-1.17,4.75-2.28,8.1-3.31,3.35-1.03,7.7-2.08,13.05-3.14,2.56-.56,4.58-1.14,6.07-1.73,1.48-.59,3-1.36,4.57-2.29,4.7-2.8,9.14-5.74,13.3-8.8,4.16-3.06,7.91-6.14,11.23-9.23,3.32-3.09,6.11-6.11,8.37-9.05,2.25-2.94,3.84-5.75,4.76-8.42,4.15.32,8.04.52,11.65.58,3.61.07,7.63,0,12.04-.22-1.95,3.87-3.8,8.21-5.56,13.03s-3.19,9.39-4.29,13.71c-1.73,6.83-3.05,12.88-3.96,18.15-.91,5.28-1.47,10.13-1.68,14.55-.21,4.43-.11,8.57.31,12.42.41,3.86,1.1,7.72,2.06,11.59l-18.57-.52ZM564.31,71.37c-4.09,5.14-8.52,10.1-13.29,14.88-4.78,4.78-10.25,9.3-16.41,13.55,3.41.38,6.61.89,9.6,1.52,2.98.64,6.44,1.57,10.37,2.8l1.94-7.68c.83-3.3,1.97-7.33,3.43-12.11,1.45-4.78,2.9-9.1,4.37-12.97Z"/>
        <path class="cls-3" d="M697.65,143.28c-3.15,5.09-9,7.95-17.54,8.59-8.54.64-19.3-1.26-32.28-5.71-.59,1.84-.76,4.57-.51,8.17.25,3.61.79,7.53,1.61,11.77.82,4.24,1.89,8.49,3.19,12.74,1.3,4.26,2.75,7.99,4.35,11.19l-20.62-1.8c-1.76-4.96-3.15-10.13-4.16-15.52-1.01-5.39-1.65-10.48-1.93-15.27-.27-4.79-.26-8.99.04-12.6.3-3.61.86-6.06,1.66-7.36.87-1.4,2.3-1.82,4.31-1.27,7.23,2.14,13.29,3.61,18.17,4.43,4.88.82,8.98,1.04,12.31.69,3.33-.35,6.02-1.31,8.08-2.86,2.06-1.55,3.9-3.62,5.51-6.22.74-1.2.95-2.38.64-3.54-.32-1.16-1.44-2.96-3.38-5.41-10.43-1.21-20.15-.68-29.15,1.61-9.01,2.29-16.98,6.46-23.9,12.52-3.2,2.71-6.9,5.73-11.1,9.06-4.21,3.33-8.88,6.92-14.02,10.77-2.32,1.74-4.13,2.76-5.42,3.06-1.29.3-2.44.14-3.43-.47-1.1-.68-2.09-1.92-2.98-3.71-.89-1.79-1.57-3.7-2.05-5.72-.48-2.02-.71-4.03-.71-6.03,0-2,.34-3.55,1.02-4.65.49-.8,1.14-1.5,1.93-2.12.79-.61,2.18-1.41,4.17-2.38,1.98-.98,4.82-2.22,8.52-3.73,3.69-1.51,8.66-3.5,14.89-5.99,1.25-.47,2.56-1.17,3.91-2.13,1.35-.96,3.01-2.58,4.99-4.88,1.97-2.3,4.36-5.48,7.15-9.54,2.79-4.07,6.26-9.44,10.4-16.12l21.47,8.12c-2.6,3.08-5.26,5.99-7.99,8.72-2.73,2.73-5.45,5.39-8.16,7.99,10.52-2.73,18.96-4.26,25.32-4.61,6.35-.34,11.43.66,15.22,3.01,2.39,1.48,4.45,3.45,6.18,5.9,1.72,2.45,3.07,5.01,4.04,7.68.97,2.67,1.48,5.23,1.55,7.69.06,2.46-.37,4.43-1.29,5.93Z"/>
        <path class="cls-3" d="M711.43,260.45c2.38-4.81,4.86-9.17,7.46-13.08,2.6-3.91,5.85-8.01,9.77-12.27-1.55-3.62-3.45-6.97-5.7-10.06-2.25-3.09-5.3-6.7-9.13-10.83-8.26.26-15.2.32-20.8.17-5.61-.15-10.2-.47-13.78-.96-3.58-.49-6.28-1.08-8.1-1.76-1.82-.68-3.03-1.38-3.64-2.1-2.44-2.86-1.03-6.53,4.24-11.03,1.69-1.45,3.38-2.54,5.07-3.28,1.68-.74,3.7-1,6.05-.77,2.35.23,5.19.89,8.52,1.98,3.33,1.09,7.48,2.75,12.47,4.98,2.41,1.02,4.4,1.72,5.95,2.09,1.55.37,3.24.63,5.06.77,5.46.43,10.77.6,15.94.51,5.17-.09,10-.44,14.5-1.04,4.5-.6,8.52-1.45,12.06-2.54,3.54-1.09,6.46-2.47,8.75-4.11,3.2,2.66,6.26,5.07,9.17,7.21,2.91,2.14,6.23,4.4,9.95,6.78-3.82,2.03-7.84,4.5-12.07,7.41-4.23,2.91-8.03,5.82-11.42,8.71-5.36,4.57-9.93,8.75-13.72,12.52-3.79,3.78-7.06,7.41-9.79,10.9-2.73,3.49-5.04,6.93-6.93,10.31-1.89,3.39-3.56,6.94-5.02,10.65l-14.85-11.16ZM762.31,207.29c-6.3,1.83-12.79,3.32-19.45,4.46-6.67,1.14-13.74,1.66-21.22,1.57,2.56,2.28,4.88,4.54,6.95,6.79,2.07,2.24,4.35,5,6.84,8.28l6.02-5.14c2.59-2.21,5.85-4.84,9.8-7.9,3.94-3.06,7.63-5.74,11.06-8.05Z"/>
        <path class="cls-3" d="M823.85,318.23c-3.3-4.43-6.32-8.96-9.06-13.57-2.74-4.62-5.6-9.93-8.58-15.92l.62,10.73c-6.39-.45-12.72-.41-18.99.11-6.27.52-12.14,1.42-17.63,2.68-5.48,1.26-10.39,2.81-14.71,4.64-4.32,1.83-7.73,3.83-10.23,5.99l-14.31-19.6c5.07-2.17,10.67-3.97,16.78-5.39,6.12-1.42,12.38-2.53,18.79-3.31,6.41-.78,12.78-1.29,19.12-1.52,6.33-.23,12.26-.25,17.76-.04-2.33-5.13-4.27-10.05-5.82-14.75-1.56-4.71-2.94-9.68-4.16-14.93l15,1.12c1.43,7.98,4.07,16.42,7.91,25.3,3.84,8.89,9.32,19.06,16.45,30.51,1.04,1.72,1.78,2.86,2.23,3.43.45.57.77,1.07.97,1.49l1.46,3.21-13.62-.2Z"/>
        <path class="cls-3" d="M846.04,438.71c-.23-8.5-.72-16.13-1.48-22.89-.76-6.77-1.62-12.75-2.57-17.95-5.3-2.35-10.38-4.4-15.24-6.15-4.86-1.76-9.78-3.47-14.75-5.15,1.25,1.36,2.3,2.49,3.13,3.39.83.89,1.79,1.8,2.86,2.71,1.69,7.94,3.04,14.74,4.07,20.4,1.02,5.66,1.65,9.37,1.89,11.11l1.23,8.89-14.8-8.08c.03-7.47-.29-14.32-.98-20.56-.69-6.24-1.9-12.62-3.62-19.13-3.33-.96-6.4-1.75-9.21-2.37-2.81-.62-5.92-1.22-9.31-1.82l-9.88-11.07c3.48,12.31,6.02,23.63,7.63,33.95,1.61,10.32,2.55,19.96,2.85,28.92l-15.81-5.1c.16-10.8-.62-22.21-2.34-34.24-1.72-12.02-4.15-23.38-7.29-34.08,2.85.91,5.26,1.67,7.25,2.28,1.98.62,3.67,1.09,5.08,1.43,1.41.34,2.63.58,3.66.74,1.03.15,1.96.29,2.81.41,9.49.94,18.18,2.16,26.09,3.67,7.91,1.51,15.22,3.4,21.93,5.67,1.51,2.39,3.02,4.73,4.52,7.01,1.5,2.28,3.58,5.31,6.23,9.09-.44-2.31-1.16-5.38-2.16-9.21-1-3.83-2.2-8.2-3.59-13.09l13.56,6.83c2.47,8.42,4.5,16.02,6.08,22.79,1.59,6.77,2.89,12.95,3.9,18.56,1.01,5.6,1.78,10.77,2.32,15.49.53,4.72.92,9.2,1.15,13.43l-15.21-5.89Z"/>
      </g>
      <circle class="cls-3" cx="450" cy="450" r="288"/>
      <g>
        <path class="cls-2" d="M553.03,383.14c-.86,2.16-1.76,3.93-2.7,5.29-.94,1.37-2.05,2.67-3.35,3.89-1.3,1.22-2.85,2.38-4.64,3.46-1.8,1.08-4,2.34-6.59,3.78-2.02,1.01-3.85,1.77-5.51,2.27-1.66.51-3.38.76-5.18.76s-3.89-.36-6.26-1.08c-2.38-.72-5.29-1.73-8.75-3.02-1.15-.43-3.06-1.04-5.72-1.84-2.67-.79-5.65-1.58-8.96-2.38-3.31-.79-6.77-1.58-10.37-2.38-3.6-.79-6.91-1.4-9.94-1.84-7.49-1.15-15.34-1.76-23.54-1.84-8.21-.07-16.2.11-23.98.54-5.76.29-11.05.61-15.88.97-4.83.36-9.69.94-14.58,1.73-4.9.79-10.01,1.87-15.34,3.24-5.33,1.37-11.31,3.13-17.93,5.29-3.31,1.15-6.26,1.15-8.86,0-2.59-1.15-3.67-3.6-3.24-7.34.14-1,.36-1.94.65-2.81.29-.86.76-1.76,1.4-2.7.65-.93,1.55-1.98,2.7-3.13s2.73-2.52,4.75-4.1c2.59-2.02,5.11-3.27,7.56-3.78,2.45-.5,5.97-.4,10.58.32,2.16.29,4.28.51,6.37.65,2.09.15,5,.07,8.75-.22,6.91-.72,13.89-1.19,20.95-1.4,7.05-.22,13.97-.39,20.74-.54,1.15,0,2.02-.57,2.59-1.73.57-1.15.79-3.6.65-7.34-.14-3.17-.43-5.29-.86-6.37-.43-1.08-1.08-1.62-1.94-1.62-3.46.14-7.53.43-12.2.86-4.68.43-8.82,1.01-12.42,1.73-2.88.58-5.26.97-7.13,1.19-1.87.22-3.39.22-4.54,0-1.15-.22-2.05-.65-2.7-1.3s-1.19-1.54-1.62-2.7c-.72-2.02-.79-3.67-.22-4.97.57-1.3,2.09-2.73,4.54-4.32,2.88-2.02,5.65-3.27,8.32-3.78,2.66-.5,6.08-.39,10.26.32,2.73.58,6.37.94,10.91,1.08,4.54.14,8.39,0,11.56-.43,1.87-.29,5.08-.43,9.61-.43s9.32.07,14.36.22c5.04.15,9.79.36,14.26.65,4.46.29,7.56.58,9.29.86,3.46.58,5.69,1.44,6.7,2.59,1.01,1.15,1.44,2.74,1.3,4.75,0,1.44-.51,2.34-1.51,2.7-1.01.36-2.95.61-5.83.76h-9.5c-2.45,0-5.15.04-8.1.11-2.95.07-5.8.11-8.53.11-1.59,0-2.59.68-3.02,2.05-.43,1.37-.65,3.49-.65,6.37,0,3.75.25,6.16.76,7.24.5,1.08,1.55,1.62,3.13,1.62,3.02,0,6.44.07,10.26.22,3.81.14,7.31.29,10.48.43,9.07.43,16.74.83,23,1.19,6.26.36,11.77.61,16.52.76,4.75.14,9,.22,12.74.22s7.56-.07,11.45-.22c2.73-.14,4.5.18,5.29.97.79.79.68,2.27-.32,4.43ZM529.06,308.84c-.15.72-.32,1.91-.54,3.56-.22,1.66-.43,3.46-.65,5.4s-.36,3.82-.43,5.62c-.07,1.8-.11,3.21-.11,4.21.29,2.45.39,4.61.32,6.48-.07,1.87-.4,3.96-.97,6.26-.43,1.73-1.33,3.1-2.7,4.1-1.37,1.01-2.81,1.59-4.32,1.73-1.51.14-2.95-.14-4.32-.86-1.37-.72-2.34-1.94-2.92-3.67-.29-.86-.51-2.23-.65-4.1-.15-1.87-.29-3.85-.43-5.94-.15-2.09-.25-4.14-.32-6.16-.07-2.01-.11-3.6-.11-4.75-.14-3.46-1.05-6.16-2.7-8.1-1.66-1.94-3.71-3.06-6.16-3.35-11.66-1.01-23.15-1.69-34.45-2.05-11.31-.36-21.75-.43-31.32-.22-9.58.22-17.86.65-24.84,1.3-6.99.65-11.99,1.4-15.01,2.27-2.45.72-4.39,1.77-5.83,3.13-1.44,1.37-2.45,3.35-3.02,5.94-.58,2.31-1.01,5.65-1.3,10.04-.29,4.39-.29,8.89,0,13.5.14,2.45-.22,4.32-1.08,5.62s-1.91,2.02-3.13,2.16c-1.23.15-2.56-.22-4-1.08-1.44-.86-2.67-2.23-3.67-4.1-1.15-2.01-2.02-4-2.59-5.94-.58-1.94-.79-4.21-.65-6.8,0-1.3-.04-3.06-.11-5.29-.07-2.23-.14-4.5-.22-6.8-.07-2.3-.14-4.5-.22-6.59-.07-2.09-.18-3.71-.32-4.86-.43-3.74-.14-7.05.86-9.94,1.01-2.88,2.73-4.82,5.18-5.83,2.16-1.15,4.39-1.55,6.7-1.19,2.3.36,4.68,1.19,7.13,2.48.57.29,1.44.58,2.59.86,1.15.29,2.38.54,3.67.76s2.48.4,3.56.54c1.08.15,1.98.22,2.7.22,4.17-.43,8.64-.79,13.39-1.08,4.75-.29,9.72-.57,14.9-.86,1.44,0,2.23-1.15,2.38-3.46.29-2.45.29-4.54,0-6.26-.58-3.89.32-6.91,2.7-9.07,2.38-2.16,5.58-3.02,9.61-2.59,3.31.29,5.97.94,7.99,1.94,2.02,1.01,3.67,2.3,4.97,3.89,1.15,1.59,1.94,3.35,2.38,5.29.43,1.94.72,4.14.86,6.59,0,2.31.94,3.46,2.81,3.46,6.05,0,12.49.15,19.33.43,6.84.29,13.28.72,19.33,1.3,1.01,0,2.05-.14,3.13-.43,1.08-.29,2.19-.86,3.35-1.73,2.01-1.58,4.28-2.34,6.8-2.27,2.52.07,5.08,1.12,7.67,3.13,2.01,1.59,3.38,3.64,4.1,6.16.72,2.52.93,4.86.65,7.02ZM437.47,315.54c1.87,2.16,2.55,4.07,2.05,5.72-.51,1.66-1.69,3.28-3.56,4.86-2.88,2.45-5.58,4.5-8.1,6.16-2.52,1.66-5.04,3.02-7.56,4.1-2.52,1.08-5.15,1.94-7.88,2.59-2.74.65-5.69,1.19-8.86,1.62-3.17.43-5.4.54-6.7.32s-2.52-1.11-3.67-2.7c-1.73-2.16-2.13-3.78-1.19-4.86.94-1.08,3.71-2.41,8.32-4,4.17-1.44,8.32-3.38,12.42-5.83,4.1-2.45,7.81-5.18,11.12-8.21,2.88-2.45,5.25-3.74,7.13-3.89,1.87-.14,4.03,1.23,6.48,4.1ZM500.54,337.35c-.86,2.31-2.95,3.46-6.26,3.46-2.3,0-5.44-.39-9.4-1.19-3.96-.79-7.99-1.87-12.1-3.24-4.1-1.37-7.88-2.84-11.34-4.43-3.46-1.58-5.83-3.09-7.13-4.54-1.3-1.58-1.91-3.6-1.84-6.05.07-2.45.9-4.39,2.48-5.83.72-.57,1.73-1.08,3.02-1.51,1.3-.43,2.7-.65,4.21-.65s3.06.25,4.64.76c1.58.51,3.09,1.4,4.54,2.7,3.89,3.46,7.96,6.55,12.2,9.29,4.25,2.74,8.24,4.61,11.99,5.62,2.73.72,4.43,1.44,5.08,2.16.65.72.61,1.87-.11,3.46Z"/>
        <path class="cls-2" d="M554.54,556.51c-2.02,5.18-4.36,9.4-7.02,12.64-2.67,3.24-5.83,5.51-9.5,6.8s-7.88,1.59-12.64.86c-4.75-.72-10.3-2.38-16.63-4.97-4.18-1.73-9.29-3.2-15.34-4.43-6.05-1.22-12.53-2.19-19.44-2.92-1.87-.29-3.06-.18-3.56.32-.51.51-.76,1.4-.76,2.7.14,4.46.14,8.17,0,11.12-.15,2.95-.29,5-.43,6.16-.58,6.05-1.73,11.41-3.46,16.09-1.73,4.68-4.21,8.61-7.45,11.77-3.24,3.17-7.34,5.62-12.31,7.34-4.97,1.73-10.91,2.66-17.82,2.81-13.54.43-25.06-1.58-34.56-6.05-9.5-4.46-15.77-10.94-18.79-19.44-.72-1.87-.68-3.06.11-3.56.79-.5,2.12-.18,4,.97,7.63,4.47,15.37,7.34,23.22,8.64,7.85,1.3,16.38,1.15,25.6-.43,2.59-.43,4.93-1.37,7.02-2.81,2.09-1.44,3.81-3.49,5.18-6.16,1.37-2.66,2.48-6.08,3.35-10.26.86-4.17,1.44-9.29,1.73-15.34.14-2.3-.07-3.78-.65-4.43-.58-.65-1.87-.97-3.89-.97-8.64,0-17.46.32-26.46.97-9,.65-18.11,1.62-27.32,2.92-5.62.72-10.69,1.76-15.23,3.13-4.54,1.37-9.83,3.35-15.88,5.94-3.31,1.44-5.98,1.55-7.99.32-2.02-1.22-3.17-3.92-3.46-8.1,0-1.01.29-2.12.86-3.35.57-1.22,1.4-2.41,2.48-3.56,1.08-1.15,2.34-2.27,3.78-3.35,1.44-1.08,3.02-1.91,4.75-2.48,4.61-1.58,9.29-1.87,14.04-.86.72.15,1.4.25,2.05.32.65.07,1.48.11,2.48.11s2.27-.03,3.78-.11c1.51-.07,3.49-.25,5.94-.54,9.94-1.01,19.29-1.76,28.08-2.27,8.78-.5,17.57-.9,26.35-1.19,2.88-.14,4.64-.54,5.29-1.19s.97-2.12.97-4.43c0-2.45-.36-3.96-1.08-4.54-.72-.57-2.09-.86-4.1-.86-3.75,0-7.49.04-11.23.11-3.75.07-7.24.18-10.48.32-3.24.15-6.09.25-8.53.32-2.45.07-4.18.11-5.18.11-3.31.15-6.34.51-9.07,1.08-2.74.58-5.62,1.44-8.64,2.59-2.16.72-4.03.79-5.62.22-1.59-.57-2.52-1.94-2.81-4.1-.14-.72,0-1.65.43-2.81.43-1.15,1.04-2.27,1.84-3.35.79-1.08,1.65-2.05,2.59-2.92.93-.86,1.91-1.51,2.92-1.94,3.17-1.15,5.62-1.8,7.34-1.94,1.73-.14,3.89.07,6.48.65,1.58.29,3.13.51,4.64.65,1.51.15,4.21.15,8.1,0,4.46-.29,8.86-.47,13.18-.54,4.32-.07,8.78-.18,13.39-.32,2.3,0,3.74-.32,4.32-.97.57-.65.72-2.27.43-4.86-.29-2.73-.68-4.39-1.19-4.97-.51-.57-1.62-.79-3.35-.65-5.18.29-10.87.54-17.06.76-6.19.22-13.18.47-20.95.76-6.05.29-11.27-.47-15.66-2.27-4.39-1.8-6.8-4.07-7.24-6.8-.29-1.58-.07-2.66.65-3.24.72-.57,2.52-.72,5.4-.43,10.22,1.3,20.48,1.87,30.78,1.73,10.29-.14,19.98-.79,29.05-1.94,9.07-1.15,17.17-2.63,24.3-4.43,7.13-1.8,12.78-3.71,16.96-5.72,4.46-2.3,7.85-3.53,10.15-3.67,2.3-.14,4.75.43,7.34,1.73,2.01,1.01,3.63,2.27,4.86,3.78,1.22,1.51,1.84,3.02,1.84,4.54s-.65,2.95-1.94,4.32c-1.3,1.37-3.31,2.41-6.05,3.13-5.04,1.15-10.08,2.2-15.12,3.13-5.04.94-10.73,1.77-17.06,2.48-1.59.14-2.59.54-3.02,1.19-.43.65-.58,2.13-.43,4.43.14,3.02.43,5,.86,5.94.43.94,1.01,1.4,1.73,1.4,4.03,0,8.03.04,11.99.11,3.96.07,7.63.18,11.02.32,3.38.15,6.41.32,9.07.54,2.66.22,4.71.4,6.16.54,2.59.43,4.32,1.01,5.18,1.73.86.72,1.22,2.09,1.08,4.1-.14,1.15-.79,2.13-1.94,2.92-1.15.79-3.1,1.33-5.83,1.62-.58,0-2.02.04-4.32.11-2.31.07-5.04.11-8.21.11h-20.09c-2.16,0-3.53.29-4.1.86s-.79,2.09-.65,4.54c.14,2.3.54,3.85,1.19,4.64.65.79,2.19,1.19,4.64,1.19,6.48.14,13.28.4,20.41.76,7.13.36,14.58.76,22.36,1.19,1.87.15,4.39.25,7.56.32,3.17.07,6.44.11,9.83.11s6.66-.03,9.83-.11c3.17-.07,5.62-.18,7.34-.32,1.87-.14,3.06.04,3.56.54.5.51.39,1.62-.32,3.35Z"/>
      </g>
    </g>
  </g>
</svg>