<?xml version="1.0" encoding="UTF-8"?>
<svg id="Layer_2" data-name="Layer 2" xmlns="http://www.w3.org/2000/svg" viewBox="0 0 873.43 841.8">
  <defs>
    <style>
      .cls-1 {
        fill: #be1e2d;
      }

      .cls-2 {
        fill: #323542;
      }

      .cls-3 {
        fill: #fff3c7;
      }
    </style>
  </defs>
  <g id="Layer_1-2" data-name="Layer 1">
    <g id="ficon_karate" data-name="ficon karate">
      <path class="cls-2" d="M141,256.21c-5.4,9.94-11.2,22-20.23,33.15,4.33-11.51,11.55-22.74,20.23-33.15ZM136.95,271.95c-4.63,4.31-5.73,9.06-7.53,13.73,2.74-4.64,7.7-8.88,7.53-13.73ZM40.03,292.89c-1.57,3.52-4.81,7.36-3.64,10.52,2.82-1.33,4.15-7.58,3.64-10.52ZM19.82,325.01c-2.55,8.09-6.16,14.59-4.95,21.73-1.32,2.08-4.82,7.41.21,8.64,3.66-4.12,1.5-6.76,3.32-11.07-3.7-5.32,2.96-13.43,1.42-19.3ZM14.06,357.45c-3.97,4.79-1.05,10.11-3.21,15.53,2.12.67,3.49-.19,4.88-1.06-1.16-4.62,1.29-10.45-1.67-14.48ZM269.69,165.51c-4.19,1.46-10.03,4.59-12.5,8.51,3.14-.36,6.84-3.01,8.81-5.32,1.35-.98,4.6-.41,3.69-3.18ZM185.57,199.65c-3.77,2.64-7.61,5.4-8.08,9.32,1.43-2.29,5.27-3.66,4.95-6.6,1.55.28,3.82-1.2,3.13-2.72ZM167.82,219.74c1.88-2.28,4.79-4.19,4.99-6.99-2.96,1.89-5.56,3.98-4.99,6.99ZM242.96,181.65c4.33-1.14,10.64-3.45,13.04-6.86-5.29-.97-8.96,4.73-13.04,6.86ZM342.97,841.8c-65.54-14.46-127.63-44.99-178.32-88.58-15.45-12.81-29.49-27.08-43.01-41.59-10.39-11.17-19.58-23.66-28-35.27-3.05-4.17-6.82-7.96-9.82-12.27-3.26-4.69-5.93-10.15-9.02-15.3-6.23-10.38-11.59-20.79-16.45-31.61-2.35-5.22-4.56-11.08-6.9-16.27-9.84-21.8-17.66-44.54-22.45-67.52-2.74-13.18-4.38-26.68-5.98-39.97-1.03-8.64-2.43-16.96-2.69-25.63-.22-7.43-.27-15.07-.26-22.54-.54-7.19-.95-14.29-1.25-21.16-.38-8.37-2.61-16.42-1.98-25.04,2.48-31.91,11.18-63.34,21.64-97.01,6.45-20.68,15.36-40.65,25.78-59.67,10.47-19,22.42-37.07,35.14-54.34,8.31-11.3,16.18-22.78,24.83-33.63.51-.64,1.03-1.27,1.55-1.91-8.84,8.89-17.37,18.16-24.73,27.98-3.04,4.04-5.03,8.52-7.98,12.45-1.6,2.07-4.15,3.72-5.73,5.9-8.28,11.79-15.08,24.81-24.06,36.5-.63,1.47,3.22.3,2.65,2.35-1.28.96-2.24-.44-2.91-1.35-11.4,16.41-16.55,33.22-25.83,50.95,5.78-19.56,16.35-38.86,25.66-57.25-5.3,1.57-5.82,8.36-9,12.32-1.44,1.77-2.87,3.69-4.22,5.69-2.84,5.56-5.57,11.18-8.19,16.86-.52,1.9-.88,3.78-1.03,5.61-.29,1.16-.93.46-1.53,0-.68,1.53-1.34,3.07-2,4.61.28,0,.55-.1.78-.3-.51.58-.99,1.22-1.46,1.86-4.11,9.63-7.89,19.41-11.34,29.32.35,1.25-.51,2.73-1.45,4.23-.46,1.38-.92,2.76-1.37,4.14.04-.06.08-.12.11-.17.33,2.15-1,5.09-1.58,6.52-.21,0-.38-.05-.53-.1-6.37,20.52-11.29,41.53-14.65,62.81-3.82,24.04-4.94,48.82-4.03,73.32.89,24.52,3.8,48.73,7.65,72.18-2.32-10.55-3.99-21.28-5.52-32.16C1.08,479.43-.25,462.04.04,445.67c.16-9.62.36-19.68.97-28.02.21-2.8-.29-5.68-.12-8.68.13-2.55,1.09-5.18,1.36-7.77.64-5.84.64-10.08,1.39-14.84,3.97-24.51,9.13-49.83,16.27-73.05,1.88-6.1,3.7-11.86,5.59-17.55.09-.42.24-.84.42-1.27.86-2.59,1.74-5.16,2.65-7.75-.04-.09-.07-.18-.12-.27-6.97,2.98-3.94,9.71-8.22,14.73,2.96-13.76,7.82-29.56,17.16-42.23-1.37,7.22-7.46,15.08-6.83,22.2,1.3-3.55,2.66-7.15,4.13-10.86,2.81-7.07,5.97-13.21,7.44-19.7,2.05-4.42,4.13-8.87,6.25-13.32-2.06,3.6-4.16,7.33-5.41,11.14-3.11-2.09.07-4.79,2.11-9.25,2.63-5.89,8.11-16.5,12.5-21.75-.22.76-.36,1.62-.57,2.42.42-.82.86-1.63,1.29-2.45,1.28-5.39,4.7-10.69,8.8-15.85,2.01-3.42,4.07-6.79,6.19-10.07,6.44-9.87,12.78-16.95,19.64-25.63,16.31-20.68,37.06-40.68,56.55-56.68,4.8-3.97,9.96-8.27,14.93-11.82,12.81-9.15,25.48-18.17,38.93-25.93,32.46-18.7,66.44-33.59,102.72-43.54,15.89-4.37,32.06-8.09,48.3-10.83.52-.21,1.06-.41,1.56-.64-17.39,1.59-33.81,5.36-50.36,10.34-16.59,4.98-33.34,11.1-51.85,17.92,9.78-7.44,24.2-10.22,37.19-14.76,4.7-1.65,11.77-3.44,17.49-4.85,16.38-4.13,34.78-9.7,51.5-12.59,22.64-3.98,46.2-3.09,65.15-5.67-3.75-1.13-10.17-.58-12.28-2.62-5.62,1.76-15.47,2.15-26.63,2.81-11.15.62-23.64,1.53-34.27,3.57-9.67,1.86-16.23,4.7-24.29,3.56-10.14,4.03-22.55,7.88-35.74,11.33-7.44,1.89-16.83,8.52-20.55,3.91,17.07-6.45,36.06-12.13,54.45-16.38,8.89-2.09,20.51-5.03,32.71-7.26,12.19-2.24,24.95-3.73,35.71-3.66,15.69.11,29.33-.71,44.01-.71,2.95.3.29-.36.82-1.35,5.98,2.49,9.28.51,16.25.97,5.33.36,10.01,1.92,15.29,2.84,12.42,2.16,26.92,3.64,41.06,7.44,10.56,2.81,21.42,5.24,31.34,8.37,11.41,3.62,22.15,8.68,33.92,12.95,24.19,8.7,48.22,22.76,69.43,36.54,22.1,14.25,43.11,30.45,61.69,48.33,1.69-.79,5.58,2.66,6.69,4.95-.9-.02-1.92-.55-2.98-1.34,4.49,4.44,8.82,8.97,12.98,13.59.9.56,1.81,1.26,2.78,2.27-2.57-4.49-9.31-8.3-10.52-12.23,2.2-.45,4.92,1.77,7.66,4.19-3.1-4.53-8.8-9.46-9.64-13.43,5.16,2.51,11.24,10.29,16.87,11.77,1.83,2.31,2.69,4.39,4.4,6.7,1.65,2.04,2.54-.5,3.93-.08,2.34,3.31,4.21,6.96,7.27,7.66-1.94.3,1.74,2.25.75,2.84,10.23,8.29,19.02,18.43,27.21,29.43,8.2,11.01,15.79,22.89,23.82,35.15,8.42,12.81,16.98,26.74,24.8,41.66,7.83,14.9,14.77,30.88,19.74,47.47.59,1.91,1.66,1.86,2.3,3.48,5.56,16.46,9.94,34.86,13.16,52.97,3.22,18.13,5.39,35.93,7.45,51.43.93,1.88,2.78,1.91,3.68,3.82-.78,11.59,4.02,23.56,2.94,35.19-.37,4-1.89,7.65-3.17,10.74-.68,25.4-6.12,53.27-13.06,80.13-.29,1.66-.67,3.36-1.09,5.11-5.42,22.53-12.47,45.45-21.59,67.69-9.06,22.25-20.09,43.89-33.26,63.53-13.19,19.6-28.21,37.36-44.71,51.86-16.52,14.47-34.29,25.8-52.47,32.86-1.94,2.15-3.81,4.3-5.54,6.52-2.05-.37-5.45,2.42-5.64-.71-1.63.75-3.3,1.55-5.33,3.51-1.26-.06-1.96-1.71-3.41-1.18-2.61,1.83-3.06,3.54-5.37,4.39-3.11-1.31-7.08-.36-9.86-2.56-1.88.4-4.19,1.87-6.32,2.88-4.51-5.65-15.86-.4-20.08-9.46-.32-1.54-2.06.5-2.81.06-2.74-3.78-5.36-5.98-8.24-9-1.02-1.18,1.56-2.35,1.01-3.54-.96-.49-2.04-.65-2.7-1.93-1.25-.97.34-1.91.06-2.87-6.01-3.52-3.73-12.48-8.89-15.63-.61-3.08.52-7.56-2.8-9.41,2.05-1.67,1.32-3.46,2.63-5.15-.77-1.02-1.85-1.07-2.49-2.52,3.73-3.27-.8-6.71,2.57-9.98l-1.65-2.15c.29-6.14,1.83-12.11,4.02-18.18-.56-1.26-1.5-.68-2.1-1.76,3.56-8.25,10.89-15.06,17.27-21.33,7.37-7.18,15.21-15.59,22.36-23.05l4.54-4.61c5.86-10.66,11.85-21,17.9-31.51,6.07-10.49,12.27-21.11,18.35-32.32,1.26-2.34,2.64-4.55,4.01-6.67,3.44-10.72,6.89-21.71,10.08-32.39,4.05-13.45,9.35-26.77,10.21-41.08.08-1.3-.29-2.43-.26-3.81.25-9.9,1.81-20.04,2.94-30.38,1.14-10.31,1.84-20.82.45-30.8-.85-6.41-1.19-19.33-1.48-26.96-.32-11.65-4.13-23.1-6.45-34.33-1.31-6.39-2.85-12.79-4.62-19.29-12.28-36.86-31.05-70.95-55.53-100.48-13.41-16.19-29.94-29.41-44.94-43.93-6.56-6.33-13.87-11.48-21.09-16.88-9.06-6.8-18.89-12.64-28.77-17.41-14.02-6.78-28.99-12.31-44.46-19.15-9.19-1.63-18.76-4.13-29.25-8.16-.85-.13-1.55.53-2.3.9-1.22-.62-2.27-1.36-2.89-2.33-12.78-2.16-26.44-1.46-40.66-4.74-4.73-1.09-10.18-.05-14.65-1.16-6.56-1.62-12.01-.6-18.01.02-7.95.82-15.81,3.58-23.9,4.68-6,.78-13,.44-19.37.57-13.21.27-25.61,5.17-37.68,7.8-22.97,5.02-43.56,15.58-62.11,26.95.03-1.11.63-1.76.43-3.08,13.78-10.27,30.87-16.63,47.38-23.72,2.49-1.07,5.45-1.15,7.95-2.37,2.75-1.36,7.39-1.97,11.45-3.44,13.55-5,31.03-6.58,46.32-9.59,14.29-2.85,28.83-1.32,42.97-4.27,6.83.35,13.53.74,19.53-.92,2.88,1.37,4.85.09,7.2-.11-1.41-2.51-4.1-1.37-6.36-1.68-6.41-.96-14.15-2.2-19.95-1.36-4.54-.72-7.96-.46-12.64-.01-14.1,1.4-27.76,7.52-43.26,3.92-.86.55-1.88.82-2.57,1.6-1.25-.51-1.68-1.96-3.27-2.02-1.6-.42-2.04.9-3.29,1.02-5.79-2.98-9.78,4.37-15.04.73-15.37,3.91-31.37,8.16-46.51,13.95-15.13,5.75-29.38,13.04-40.77,22.17-.94.14-1.82.08-2.51-.51-1.33.96-1.28,2.94-2.38,4.05-11.83,4.12-20.54,12.15-31.79,16.53-.93-1.17-.1-1.33-.79-2.36l-3.54,1.22c2.87-5.36,11.12-5.51,12.07-11.78,2.91.18,5.77-1.39,6.07-3.81-3.52-.1-5.8,5.12-10.26,4.58,1.96-1.38,3.36-3.12,5.17-4.59-4.53,2.03-9.84,5.09-11.88,8.81-6.03,2.83-13.82,8.27-21.43,14.62-7.62,6.35-15.04,13.6-20.98,19.5-3.16,3.13-6.36,7.52-10.28,8.95-7.03,8.29-13.98,17.34-20.32,25.97.62,2.3-2.43,3.26-3.64,5.91-.17-.13-.15-.46,0-.9-1.15,1.6-2.28,3.18-3.37,4.72-1.58,2.2-3.05,4.48-4.47,6.8.38,1.23-1.88,3.18-2.36,4.68-.11-.05-.2-.11-.28-.18-2.78,4.89-5.39,9.92-8.11,14.86-14.42,26.2-25.2,54.62-32.15,83.79-6.98,29.07-11.18,59.15-10.7,88.58.45,30.07,4.75,59.67,13.17,88.57,6.5,22.2,16.02,43.26,26.77,63.39.34-.11.7-.16,1.1-.08,1.32,7.93,8.47,9.44,8.18,16.75.18.31.36.63.54.94,2.42,1.03,4.79,2.11,6.61,5.53-1.36.07-2.55-2.17-3.08.13,4.56,5.22,12.79,9.62,13.79,18.36,11.45,6.95,20.11,19.69,31.53,31.18,7,7.1,16.06,13.43,24.09,19.63,8.08,6.17,15.12,12.3,18.49,19.66-3.88-1.93-10.85-5.53-11.86-10.12-4.78-1.33-9.83-5.59-14.51-9.99-4.71-4.38-9.04-8.92-13.08-10.56-11.86-11.72-23.03-23.48-33.45-35.65,10.57,14.24,22.38,27.72,34.5,40.33.13-.03.26-.08.4-.16,1.43,1.22,5.1,5.37,4.91,5.62,1.17,1.18,2.34,2.35,3.51,3.52,1.66-.24,3.46,1.95,5.23,3.63-.32.32-.65.49-.99.56.51.5,1.03,1.01,1.54,1.51,4.35.71,8.86,4.01,13.69,8.98-3.9,3.17-6.24-6.17-9.95-6.13-.03.22-.03.44-.03.66,9.87,9.1,21.4,17.54,31.81,24.68,20.82,14.35,43.73,25.49,66.54,36.3-10.3-3.62-20.66-9.07-31.32-13.11l-13.72-5.3c-4.63-1.74-10.01-3.68-14.64-3.91,1.82,2.51,5.5,3.66,7.81,5.8-11.37-4.28-21.05-12-31.27-17.92-6.29-3.65-12.59-7.44-18.71-11.81-14.2-10.2-24.94-20.63-40.63-31.14.06.25.15.48.22.72,2.13,2.11,4.3,4.18,6.53,6.2,14.1,12.8,29.46,24.44,45.1,35.18,15.65,10.75,31.64,20.53,47.23,30.03-9.16-3.4-16.21-6.87-23.16-10.48l-22.54-11.89c-2.82,1.68,4.22,2.77,1.43,4.45-7.01-5.27-13.61-9.95-19.96-13.63,8.03,6.59,16.31,12.88,24.13,19.18,1.37.39,3.05.56,3.78,1.33,4.87,4.66,10.82,8.63,17.87,11.67,1.44.53,1.08,2.34,2.73,2.71,22.99,13.96,47.92,25.02,73.26,33.99,1,1.47-2.03.77-1.04,2.25,5.1,1.46,10.47,2.49,14.95,4.58-12.2-1.75-21.73-6.91-33.57-9.81-40-16.77-79.5-37.62-113.25-66.41-7.67-6.53-15.12-13.41-22.28-20.58-17.6-14.14-33.66-30.73-46.26-49.44,11.55,11.53,23.18,24.83,34.36,36.99-7.68-8.39-14.98-17.08-21.81-25.98-1.49-1.92-3.37-3.45-4.78-5.4-.67-.94-1.21-1.98-1.74-3.03-6.35-7.6-12.41-15.52-18.11-23.89-.74,2.3,1.7,5.73,3.54,8.88-11.48-10.12-21.01-26.93-29.82-42.17-2.01-4.35,2.62-1.7.4-6.17-1.03-3.89-2.09,2.26-2.83-1.48-2.23-4.06-4.33-7.94-6.27-12.14,8.91,22.49,20.05,44.19,32.9,64.13,13.22,20.57,27.36,39.33,44.07,56.63,6.62,6.84,12.63,14.32,19.71,20.59,3.16,2.79,6.02,5.39,9.06,8.22,8.5,7.93,18.68,14.73,28.14,21.53,2,1.43,3.51,3.32,5.56,4.66,8.33,5.52,15.45,10.13,23.59,14.75,12.5,7.06,24.99,13.33,37.36,19.2,6.06,2.88,11.82,6.54,18.11,9.26,10.8,4.69,22.51,8.26,33.28,11.55,3.41,1.04,8.1,1.72,10.73,4.08-12.87-.43-25.61-5.06-37.67-9.19-30.25-10.31-59.73-23.97-85.98-41.82-5.36-3.64-10.52-7.45-15.68-11.26-10.78-7.96-20.76-16-30.55-24.37-4.91-6.17-11.25-11.44-16.82-17.05-5.73-5.77-10.9-11.93-16.22-17.89-12.7-14.25-25.07-29.91-34.61-45.89-4.72-7.9-9.78-15.64-14.08-23.66-7.8-14.48-14.39-29.63-20.24-44.82-.09.07-.19.14-.32.2-.1-.84-.39-1.8-.66-2.76-2.54-6.69-4.95-13.38-7.25-20.02-4.04-11.61-7.65-23.37-9.59-35.41-3.2-5.63-1.21-13.62-4.91-17.11.43,10.27,3.05,20.97,4.68,31.29,3.74,15.8,8.41,31.45,13.54,47.16.28.65.54,1.29.76,1.94.24.72.43,1.46.6,2.19,1.02,3.07,2.04,6.15,3.09,9.23-.74-1.82-1.54-3.63-2.36-5.43.28,1.63.59,3.24,1.12,4.82,2.21,6.53,7.15,13.96,7.86,19.34-7.1-13.78-12.84-28.23-17.78-42.96-.46-1.09-.9-2.18-1.33-3.28-2.89-7.52-6.84-16-8.56-23.72-.39-1.74-.04-3.78.15-5.67-2.77-10.51-5.16-21.11-7.02-31.76-1.38-2.22-3-4.35-3.69-6.68-.86-2.85-.5-6.08-.96-9.16-1.2-7.86-2.25-16.1-3.16-24.46,0,4.47,0,8.94.42,13.35,1.59,16.61,4.5,33.1,7.83,49.6,1.6,8.02,3.74,16.21,5.99,24.33,2.18,7.97,4.06,16.5,7.03,23.87,4.35,10.75,8.23,19.86,12.76,30.38,4.94,11.47,11.02,22.69,16.22,32.17,7.14,13.2,17.4,27.41,26.02,39,10.35,13.98,20.91,26.17,32.55,38.22,13.21,13.68,27.83,26.8,42.05,39.01,7.21,6.18,15.28,11.48,23.28,17.07,23.69,16.57,49.61,29.34,75.54,41.38,4.42.94,6.97,2.45,10.71,3.97,12.3,4.95,24.8,8.32,36.57,12.44-.82.98-1.5-.7-3.33-.22,7.6,4.42,21.21,4.53,27.14,8.71ZM28.32,498.02c-.45-3.23-.86-6.46-1.2-9.69-1.06-10.17-2.59-20.37-2.84-30.74-.09-3.65-.14-7.31-.14-10.96-.99-10.03-1.37-19.97.1-29.51.25,1.32.45,2.68.64,4.07.95-16.45,2.85-32.82,5.72-49,.81-10.19,2.27-20.56,4.85-30.75,2.34-9.29,4.59-18.77,7.03-28.07-.58,1.76-1.15,3.51-1.72,5.27-4.25,12.96-7.87,26.25-10.81,39.73.66,1.39.9,3.8-.65,4.64-.11-.1-.2-.22-.27-.35-1.1,5.33-2.1,10.7-2.98,16.08.1,11.25-.52,26.56-1.74,37.56-1.35-4.89-1.37-12.02-.77-19.17.03-.34.06-.69.1-1.03-2.35,20.44-3,41.1-1.67,61.59.07,1.16.12,2.32.15,3.48,1.77,13.12,4.74,25.87,6.05,39.14.06-.76.1-1.52.14-2.28ZM55.39,293.28s0,0,0,0l-.53.16c-.21,1.22-.08,1.94.19,2.44.76-.57,1.1-1.66,1.31-2.89l-.96.29s0,0,0,.01ZM56.1,296.55c-1.66,7.2-3.32,14.1-6.56,19.3-.39,4.63-2.26,9.29-4.06,13.98-.11,1.08-.44,2.06-1.02,2.69-.68,1.86-1.31,3.72-1.79,5.59-1.41,5.46-.87,11.71-4.42,15.49,2.04,1.5.88,4.54-.74,7.07-.91,9.63-3.07,18.03-4.45,26.88.8,1.69,1.13,4.06,1.19,6.64.03-.25.07-.51.09-.76,1.04-11.31,2.99-23.6,5.47-35.08,3.45-16.09,7.83-32.14,13.19-47.28.03-.27.05-.54.08-.8l.42-.6c.72-2.01,1.46-4.01,2.22-5.99.02-.06.05-.12.07-.18,1.86-7.9,6.06-16.11,10.38-24.39,1.41-3.27,2.86-6.52,4.36-9.74-.08-.38-.15-.75,0-1.02.16-.29.46-.5.8-.69,1.25-2.66,2.55-5.31,3.87-7.95.29-.71.62-1.39,1.02-2.03,1.64-3.23,3.33-6.44,5.07-9.63.58-1.57,1.17-3.13,1.84-4.69.47-.35.88-.69,1.25-1.02.4-.81.81-1.62,1.2-2.43,1.76-3.7,3.58-7.55,5.75-11.62-7.02,11.31-13.51,22.89-19.29,34.25-1.13,2.19-2.95,4.38-3.97,6.68-.89,2.08-1.19,4.35-1.94,6.34-2.85,7.41-6.82,14.12-10.03,21ZM137.02,198c-2.12,1.7-4.14,3.53-6.09,5.45.05.16.11.32.13.52l-1.62,2.06-.64-.48c-5.41,5.72-10.06,12.21-14.33,18.93.22.05.44.11.67.28.16,1.17-1.12,3.09-2.35,2.4-1.75,2.83-3.44,5.69-5.12,8.55.35.58.14,1.33-.3,2.08,2.67-3.8,5.59-7.53,8.26-11.34,1.16-1.66,1.9-3.8,3.23-5.61,3.22-4.36,7.4-9.1,10.48-12.8,1.6-1.92,3.11-4.13,4.69-6.25.95-1.29,1.95-2.55,2.96-3.79ZM156.28,150.74c2.18-1.71,4.37-3.44,6.54-5.28-.6-.19-1.31,0-2.05.45-1.54,1.54-2.97,3.05-4.13,4.27-.13.2-.26.38-.37.56ZM55.7,372.16c.93-5.97,2.18-11.64,4.36-16.57,2.46-15.25,6.95-29.49,12.84-42.58,6.39-23.36,16.91-43.98,28.7-63.92.81-.86.93-2.81,1.35-4.31,1.14-2.07,2.44-4.09,3.83-6.09-.65.83-1.43,1.59-1.88,2.04-.04-.03-.05-.08-.08-.11l-.88,1.55c-3.51,6.02-8.12,11.49-11.41,17.69-5.39,10.18-7.42,19.78-12.83,30.36-2.55,5.02-3.87,10.69-5.97,16.1-6,15.41-11.48,32.1-15.14,49.41-1.15,5.43-2.12,10.91-2.88,16.42ZM391.92,106.75c1.18.95,2.97,1.18,3.64.08-.15-.1-.29-.22-.43-.34-1.07.08-2.13.17-3.2.26ZM401.33,106.06c-.63.04-1.27.07-1.9.11-.04.17-.07.36-.08.57,1.14.7,1.6.09,1.99-.68ZM104.62,208.16c7.8-9.54,16.46-17.55,20.65-26.04-3.35,3.65-6.7,7.4-9.85,11.45-3.68,4.7-7.29,9.59-10.81,14.59ZM30.11,400.65c-1.29,4.83-1.43,10.39-.49,16.47-1.82,5.03-1.72,11.25.26,18.28.66-.3,1.05-.76,1.27-1.33-.14-2.06-.17-4.12-.1-6.09,0-.03,0-.06,0-.09,0-.01,0-.02,0-.04.12-3.1.5-5.95,1.13-8.11.08.16.14.34.21.51.25-4.48.15-9.11.31-13.74-1.45-.96-2.29-3.18-2.61-5.86ZM361.87,110.81c-.2.18-.36.42-.44.78,5-.3,9.4-.97,15.8-1.52,3.36-.28,6.66-1.31,9.2-2.76-.01-.01-.03-.02-.04-.03-8.22.87-16.41,2.06-24.52,3.53ZM407.97,107.48c1.19.42,1.5-.97,2.07-1.83-1.1.03-2.19.08-3.28.13.63.36,1.1.89,1.21,1.7ZM414.29,108.28c2.6-3.04,7.9-.14,10.76-2.69-1.13-.02-2.25-.05-3.37-.06-3.26-.03-6.53,0-9.8.09.94.77,1.15,2.2,2.41,2.67ZM335.9,119.16l1.5.09c.16-1.91-1.96-2.04-1.5-.09ZM435.6,105.94c-2.88-.15-5.75-.25-8.64-.32,3.32,1.13,6.05.88,8.64.32ZM57.51,276.16c-.85,2.33-1.75,4.74-2.75,7.2-3.86,9.46-7.81,18.93-10.36,28.92-.66,2.6-1.36,5.18-2.04,7.77,2.05-7.46,4.19-14.97,7.39-21.51,1.99-7.54,6.26-15.2,7.75-22.38ZM53.26,538.7c-.07-.55-.14-1.1-.18-1.64-.6-7.14-1.04-13.84-3.08-23.69-3.56-17.27-5.72-35-7.9-53.1.95,24.5,4.12,48.9,9.66,72.28.48,2.05.99,4.1,1.51,6.15ZM151.16,696.11c-.24-.26-.48-.51-.72-.77.23.25.46.51.69.75,0,0,.02.01.02.02ZM182.58,717.16c3.55,3.22,7.22,6.36,10.95,9.43.78-1.67,1.95-.52,2.76-1.92-3.98-3.79-8.41-5.34-10.86-9.72-2.54-1.27-2.33,1.15-2.85,2.2ZM167.62,698.24c2.75,2.61,5.63,5.16,7.78,7.94-3.42-1.69-6.27-5.55-9.36-6.24,3.97,4.91,8.41,9.55,13.1,14.02.76-1.4,2.99-2.73,2.78-4.17-4.84-6.94-10.54-8-14.31-11.55ZM165.7,696.36c.59.59,1.18,1.17,1.79,1.75-.52-.5-1-1.05-1.44-1.68-.12-.02-.24-.05-.35-.08ZM260.38,141.71c6.67-3.54,13.58-7.52,17.94-11.71-10.39,4.76-20.55,10.03-30.4,15.86-13.77,8.12-27.59,16.73-39.72,27.15-7.96,6.83-15.98,13.83-23.62,21.29,7.85-7.38,16.45-14.59,25.46-21.31,16.41-12.28,34.17-22.87,50.34-31.27ZM268.79,141.71c-9.87,4.58-19.53,9.21-29.24,13.65-.14,1.04-2.07,1.85-2.92,2.8.05-.02.1-.04.16-.05,1.8,1.47,5.85,1.35,7.35.12.4-2.06-2.33-1.31-3.51-1.66.7-1.79,3.43-3.08,4.58-2.7-.05.54-.65.69-.18,1.59,1.94-1.99,4.82-.65,6.96-1.63,2.65-1.2,3.39-5.83,7.47-5.62.96-.7,1.02.93,1.39,1.76,1.3-2.24,4.42-5.58,7.93-8.25ZM280.75,137.31c6.11-2.85,11.91-5.95,18.94-7.68,12.86-7.29,27.79-8.85,42.69-14.54.91.55,1.9,1.03,3.07,1.25,3.52-3.73,10.11-1.98,14.49-3.44-.04-.8.16-1.37.19-1.78-9.96,1.85-19.8,4.12-29.44,6.76-16.85,4.58-32.6,10.71-47.57,17.3-1.37.61-2.73,1.22-4.09,1.83.58.02,1.15.11,1.72.29ZM305.41,129.85l-.37-1.98c-1.02.43-2.01.88-2.26,2.1,1.54-.2,1.58.58,2.62-.12ZM308.95,126.24c.29,2.57,2.92,1.15,3.01-.06l-3.01.06ZM320.95,123.15c-1.28.18-3.76.09-4.25,1.98,1.59-.47,4.02.04,4.25-1.98ZM541.91,139.05c-3.76-4.08-8.9-3.84-13.87-5.4-14.99-4.76-31.43-9.44-45.54-11.55-2.23-.36-4.75-2.1-7.06.11,4.89,3.74,11.12,3.29,16.98,4.53,8.02,1.67,16.31,2.99,24.23,6.5,5.46.28,11.11,2.37,16.67,5.18,2.8-1.09,5.81,3.06,8.58.63ZM740.13,142.76c-1.19-2.31-5.27-5.55-7.43-6.4-.27-1.5.99-1.22,1.85-1.75-2.6-.6-5.36-2.16-8.18-3.85,4.33,6.41,8.22,11.3,13.76,12ZM53.69,226.42c.71-1.42,1.42-2.83,2.14-4.24-.38.34-.86.56-1.49.63-.04,1.17-.28,2.38-.65,3.61ZM82.79,216.23c-1.06,1.78-1.94,3.65-2.78,5.56,1.6-2.63,3.2-5.25,4.79-7.85.69-1.13,1.4-2.27,2.11-3.4-1.5,1.84-2.95,3.72-4.13,5.69ZM20.11,436.96c.07-10.58.3-20.98,1.05-31.53.5-7.06,2.05-13.99,3.01-20.97,1.24-9.02,2.65-17.88,4.56-26.67-.05-.06-.1-.13-.16-.18.08-.1.16-.16.24-.2.95-4.32,2.01-8.61,3.25-12.91,1.83-6.31,2.93-13.01,4.73-19.56,1.52-5.57,3.68-10.87,5.66-16.14.09-1.23.88-2.84,1.63-4.42.58-1.6,1.17-3.19,1.76-4.79-.97-2.15,1.81-7.9,3.01-9.85,1.3-3.12,2.97-6.11,4.52-9.06,1.25-2.95,2.55-5.89,3.87-8.82.35-1.2.62-2.41.75-3.64.58-.55,1.1-1.12,1.58-1.7-.29.05-.62-.04-.99-.3,1-1.92,1.9-4.35,3.35-4.46.87-1.82,1.74-3.64,2.63-5.46.36-1.18.7-2.38,1.06-3.59l.92-.98c.04.14.07.28.1.42.32-.63.63-1.25.94-1.88l-.99-.82c.47-1.41.99-3.05,2.67-3.56.39-2.51,1.22-4.99,2.31-7.46-5.55,9.91-10.42,20.5-15.9,29.74,2.04-5.07,4.28-10.01,6.66-14.84-3.85,6.72-7.57,13.84-11.02,21.19-6.7,14.3-12.3,29.42-16.16,43.58-2.03,7.38-2.08,14.92-3.78,21.94-3.46,14.35-7.29,28.01-8.93,42.01-2.18,18.67-3.07,36.87-2.33,54.93ZM83.01,639.92c-1.26-5.13-8.66-14.65-10.56-16.05,3.12,6.59,6.81,11.38,10.56,16.05ZM240.09,49.39c2.2.78,6.57-1.95,10.13-3.26-.82-2.51-8.64,1.9-10.13,3.26ZM79.36,644.63c.49,3.18,3.36,4.63,4.73,6.98.44-2.97-1.98-6.65-4.73-6.98ZM173.36,86.38c-3.34,1.82-6.26,3.72-8.33,6.53,3.89-2.65,6.09-3.16,8.33-6.53ZM233.45,53.01c-.57-2.33-3.9.66-5.01,1.81,2.05-1.09,3.88.16,5.01-1.81ZM218.72,59.11c-2.22.89-2.42,2-2.58,3.11,1.95-.91,3.67-1.85,2.58-3.11ZM272.38,737c-4.62-2.28-7.51-6.61-11.59-5.4,1.54,2.75,7.89,7.33,11.59,5.4ZM244.31,729.51c-6.85-4.78-6.5-.34,0,0h0ZM247.46,723.6c-1.35,3.66,8.79,8.52,11.44,8.38-2.43-2.04-8.42-5-11.44-8.38ZM266.94,742.24c-5.22-3.18-9.86-4.52-15.09-8.48,2.07,3.28,9.16,5.63,11.6,8.73.85-1.08,2.84,1.5,3.49-.25ZM227.69,712.3c3.26,4.47,10.96,8.63,15.14,8.05-3.52-4.32-11.05-8.99-15.14-8.05ZM259.39,764.48c2.81,1.42,6.25,4.09,8.09,2.88-2.47-1.42-1.24-1.75-.1-3.04l-3.36-1.8c.85,4.55-3.15-.11-4.63,1.97ZM218.2,714.99c2.91-.39,6.4,3.06,9.58,4.18-1.69-2.96-7.16-6.87-9.58-4.18Z"/>
      <g>
        <path class="cls-3" d="M439.91,34.69c-5.47,2.41-10.31,5.31-14.53,8.68-4.22,3.38-8.01,6.9-11.38,10.56l-5.5-2.76c1.55-2.82,2.93-5.16,4.15-7.02,1.21-1.86,2.63-3.78,4.24-5.79-2.27,1.11-4.42,2.21-6.46,3.31-2.04,1.1-4.12,2.37-6.24,3.82-2.13,1.46-4.41,3.16-6.85,5.11-2.44,1.95-5.26,4.34-8.46,7.17.24,3.16,1.69,6.88,4.37,11.15,2.67,4.27,5.97,8.55,9.88,12.85,3.91,4.29,8.12,8.3,12.64,12.02,4.52,3.72,8.73,6.61,12.65,8.67l-14.14,11.48c-4.59-3.18-8.95-6.71-13.06-10.58-4.12-3.87-7.72-7.65-10.83-11.36-3.1-3.71-5.58-7.26-7.42-10.65s-2.85-6.26-3.03-8.6c-.24-3.16.65-5.46,2.66-6.91l-1-1.51c-1.7.83-3.29,1.96-4.78,3.36-1.48,1.41-2.9,3.28-4.26,5.62-1.35,2.34-2.67,5.17-3.95,8.5-1.28,3.33-2.62,7.41-4.02,12.22-1.39,4.93-2.66,8.91-3.78,11.93-1.12,3.03-2.15,5.4-3.08,7.12-.93,1.72-1.81,2.9-2.65,3.55-.83.65-1.66,1.01-2.48,1.07-1.64.12-3.26-.29-4.86-1.22-1.6-.94-3.07-2.12-4.42-3.55-1.34-1.43-2.45-2.87-3.33-4.34-.88-1.46-1.35-2.72-1.43-3.78-.1-1.29-.1-2.46,0-3.53.1-1.07.42-2.21.98-3.43.55-1.22,1.33-2.6,2.34-4.15,1-1.54,2.36-3.44,4.07-5.69,2.25-2.99,4.31-6.09,6.18-9.29,1.88-3.2,3.42-6.9,4.64-11.12,1.21-4.21,2.02-9.07,2.43-14.57.41-5.5.27-12.05-.42-19.65l21.07-6.17c-.09,3.42-.27,6.61-.51,9.57-.25,2.96-.65,5.85-1.2,8.65-.56,2.81-1.22,5.71-1.99,8.71-.78,3-1.74,6.25-2.89,9.75,5.84-6.79,11.09-12.54,15.74-17.24,4.65-4.7,9.18-8.99,13.59-12.85,2.76-2.44,5.57-4.51,8.45-6.2,2.87-1.68,5.3-2.6,7.29-2.75,3.74-.28,10.93,3,21.57,9.85Z"/>
        <path class="cls-3" d="M518.26,130.1c-.84-5.3-1.33-10.29-1.47-14.99-.15-4.7.15-9.92.88-15.66-3.35-2.06-6.84-3.7-10.47-4.92-3.63-1.22-8.2-2.4-13.71-3.56-6.59,4.99-12.21,9.05-16.87,12.16-4.66,3.12-8.6,5.51-11.8,7.18-3.21,1.67-5.75,2.75-7.63,3.24-1.88.5-3.28.62-4.18.39-3.64-.92-4.61-4.73-2.91-11.45.55-2.16,1.29-4.03,2.24-5.61.94-1.58,2.44-2.95,4.49-4.13,2.05-1.17,4.75-2.28,8.1-3.31,3.35-1.03,7.7-2.08,13.05-3.14,2.56-.56,4.58-1.14,6.07-1.73,1.48-.59,3-1.36,4.57-2.29,4.7-2.8,9.14-5.74,13.3-8.8,4.16-3.06,7.91-6.14,11.23-9.23,3.32-3.09,6.11-6.11,8.37-9.05,2.25-2.94,3.84-5.75,4.76-8.42,4.15.32,8.04.52,11.65.58,3.61.07,7.63,0,12.04-.22-1.95,3.87-3.8,8.21-5.56,13.03s-3.19,9.39-4.29,13.71c-1.73,6.83-3.05,12.88-3.96,18.15-.91,5.28-1.47,10.13-1.68,14.55-.21,4.43-.11,8.57.31,12.42.41,3.86,1.1,7.72,2.06,11.59l-18.57-.52ZM529.05,57.31c-4.09,5.14-8.52,10.1-13.29,14.88-4.78,4.78-10.25,9.3-16.41,13.55,3.41.38,6.61.89,9.6,1.52,2.98.64,6.44,1.57,10.37,2.8l1.94-7.68c.83-3.3,1.97-7.33,3.43-12.11,1.45-4.78,2.9-9.1,4.37-12.97Z"/>
        <path class="cls-3" d="M662.39,129.22c-3.15,5.09-9,7.95-17.54,8.59-8.54.64-19.3-1.26-32.28-5.71-.59,1.84-.76,4.57-.51,8.17.25,3.61.79,7.53,1.61,11.77.82,4.24,1.89,8.49,3.19,12.74,1.3,4.26,2.75,7.99,4.35,11.19l-20.62-1.8c-1.76-4.96-3.15-10.13-4.16-15.52-1.01-5.39-1.65-10.48-1.93-15.27-.27-4.79-.26-8.99.04-12.6.3-3.61.86-6.06,1.66-7.36.87-1.4,2.3-1.82,4.31-1.27,7.23,2.14,13.29,3.61,18.17,4.43,4.88.82,8.98,1.04,12.31.69,3.33-.35,6.02-1.31,8.08-2.86,2.06-1.55,3.9-3.62,5.51-6.22.74-1.2.95-2.38.64-3.54-.32-1.16-1.44-2.96-3.38-5.41-10.43-1.21-20.15-.68-29.15,1.61-9.01,2.29-16.98,6.46-23.9,12.52-3.2,2.71-6.9,5.73-11.1,9.06-4.21,3.33-8.88,6.92-14.02,10.77-2.32,1.74-4.13,2.76-5.42,3.06-1.29.3-2.44.14-3.43-.47-1.1-.68-2.09-1.92-2.98-3.71-.89-1.79-1.57-3.7-2.05-5.72-.48-2.02-.71-4.03-.71-6.03,0-2,.34-3.55,1.02-4.65.49-.8,1.14-1.5,1.93-2.12.79-.61,2.18-1.41,4.17-2.38,1.98-.98,4.82-2.22,8.52-3.73,3.69-1.51,8.66-3.5,14.89-5.99,1.25-.47,2.56-1.17,3.91-2.13,1.35-.96,3.01-2.58,4.99-4.88,1.97-2.3,4.36-5.48,7.15-9.54,2.79-4.07,6.26-9.44,10.4-16.12l21.47,8.12c-2.6,3.08-5.26,5.99-7.99,8.72-2.73,2.73-5.45,5.39-8.16,7.99,10.52-2.73,18.96-4.26,25.32-4.61,6.35-.34,11.43.66,15.22,3.01,2.39,1.48,4.45,3.45,6.18,5.9,1.72,2.45,3.07,5.01,4.04,7.68.97,2.67,1.48,5.23,1.55,7.69.06,2.46-.37,4.43-1.29,5.93Z"/>
        <path class="cls-3" d="M676.17,246.38c2.38-4.81,4.86-9.17,7.46-13.08,2.6-3.91,5.85-8.01,9.77-12.27-1.55-3.62-3.45-6.97-5.7-10.06-2.25-3.09-5.3-6.7-9.13-10.83-8.26.26-15.2.32-20.8.17-5.61-.15-10.2-.47-13.78-.96-3.58-.49-6.28-1.08-8.1-1.76-1.82-.68-3.03-1.38-3.64-2.1-2.44-2.86-1.03-6.53,4.24-11.03,1.69-1.45,3.38-2.54,5.07-3.28,1.68-.74,3.7-1,6.05-.77,2.35.23,5.19.89,8.52,1.98,3.33,1.09,7.48,2.75,12.47,4.98,2.41,1.02,4.4,1.72,5.95,2.09,1.55.37,3.24.63,5.06.77,5.46.43,10.77.6,15.94.51,5.17-.09,10-.44,14.5-1.04,4.5-.6,8.52-1.45,12.06-2.54,3.54-1.09,6.46-2.47,8.75-4.11,3.2,2.66,6.26,5.07,9.17,7.21,2.91,2.14,6.23,4.4,9.95,6.78-3.82,2.03-7.84,4.5-12.07,7.41-4.23,2.91-8.03,5.82-11.42,8.71-5.36,4.57-9.93,8.75-13.72,12.52-3.79,3.78-7.06,7.41-9.79,10.9-2.73,3.49-5.04,6.93-6.93,10.31-1.89,3.39-3.56,6.94-5.02,10.65l-14.85-11.16ZM727.05,193.22c-6.3,1.83-12.79,3.32-19.45,4.46-6.67,1.14-13.74,1.66-21.22,1.57,2.56,2.28,4.88,4.54,6.95,6.79,2.07,2.24,4.35,5,6.84,8.28l6.02-5.14c2.59-2.21,5.85-4.84,9.8-7.9,3.94-3.06,7.63-5.74,11.06-8.05Z"/>
        <path class="cls-3" d="M788.58,304.17c-3.3-4.43-6.32-8.96-9.06-13.57-2.74-4.62-5.6-9.93-8.58-15.92l.62,10.73c-6.39-.45-12.72-.41-18.99.11-6.27.52-12.14,1.42-17.63,2.68-5.48,1.26-10.39,2.81-14.71,4.64-4.32,1.83-7.73,3.83-10.23,5.99l-14.31-19.6c5.07-2.17,10.67-3.97,16.78-5.39,6.12-1.42,12.38-2.53,18.79-3.31,6.41-.78,12.78-1.29,19.12-1.52,6.33-.23,12.26-.25,17.76-.04-2.33-5.13-4.27-10.05-5.82-14.75-1.56-4.71-2.94-9.68-4.16-14.93l15,1.12c1.43,7.98,4.07,16.42,7.91,25.3,3.84,8.89,9.32,19.06,16.45,30.51,1.04,1.72,1.78,2.86,2.23,3.43.45.57.77,1.07.97,1.49l1.46,3.21-13.62-.2Z"/>
        <path class="cls-3" d="M810.78,424.65c-.23-8.5-.72-16.13-1.48-22.89-.76-6.77-1.62-12.75-2.57-17.95-5.3-2.35-10.38-4.4-15.24-6.15-4.86-1.76-9.78-3.47-14.75-5.15,1.25,1.36,2.3,2.49,3.13,3.39.83.89,1.79,1.8,2.86,2.71,1.69,7.94,3.04,14.74,4.07,20.4,1.02,5.66,1.65,9.37,1.89,11.11l1.23,8.89-14.8-8.08c.03-7.47-.29-14.32-.98-20.56-.69-6.24-1.9-12.62-3.62-19.13-3.33-.96-6.4-1.75-9.21-2.37-2.81-.62-5.92-1.22-9.31-1.82l-9.88-11.07c3.48,12.31,6.02,23.63,7.63,33.95,1.61,10.32,2.55,19.96,2.85,28.92l-15.81-5.1c.16-10.8-.62-22.21-2.34-34.24-1.72-12.02-4.15-23.38-7.29-34.08,2.85.91,5.26,1.67,7.25,2.28,1.98.62,3.67,1.09,5.08,1.43,1.41.34,2.63.58,3.66.74,1.03.15,1.96.29,2.81.41,9.49.94,18.18,2.16,26.09,3.67,7.91,1.51,15.22,3.4,21.93,5.67,1.51,2.39,3.02,4.73,4.52,7.01,1.5,2.28,3.58,5.31,6.23,9.09-.44-2.31-1.16-5.38-2.16-9.21-1-3.83-2.2-8.2-3.59-13.09l13.56,6.83c2.47,8.42,4.5,16.02,6.08,22.79,1.59,6.77,2.89,12.95,3.9,18.56,1.01,5.6,1.78,10.77,2.32,15.49.53,4.72.92,9.2,1.15,13.43l-15.21-5.89Z"/>
      </g>
      <circle class="cls-3" cx="414.74" cy="435.94" r="270"/>
      <g>
        <path class="cls-1" d="M517.77,369.08c-.86,2.16-1.76,3.93-2.7,5.29-.94,1.37-2.05,2.67-3.35,3.89-1.3,1.22-2.85,2.38-4.64,3.46-1.8,1.08-4,2.34-6.59,3.78-2.02,1.01-3.85,1.77-5.51,2.27-1.66.51-3.38.76-5.18.76s-3.89-.36-6.26-1.08c-2.38-.72-5.29-1.73-8.75-3.02-1.15-.43-3.06-1.04-5.72-1.84-2.67-.79-5.65-1.58-8.96-2.38-3.31-.79-6.77-1.58-10.37-2.38-3.6-.79-6.91-1.4-9.94-1.84-7.49-1.15-15.34-1.76-23.54-1.84-8.21-.07-16.2.11-23.98.54-5.76.29-11.05.61-15.88.97-4.83.36-9.69.94-14.58,1.73-4.9.79-10.01,1.87-15.34,3.24-5.33,1.37-11.31,3.13-17.93,5.29-3.31,1.15-6.26,1.15-8.86,0-2.59-1.15-3.67-3.6-3.24-7.34.14-1,.36-1.94.65-2.81.29-.86.76-1.76,1.4-2.7.65-.93,1.55-1.98,2.7-3.13s2.73-2.52,4.75-4.1c2.59-2.02,5.11-3.27,7.56-3.78,2.45-.5,5.97-.4,10.58.32,2.16.29,4.28.51,6.37.65,2.09.15,5,.07,8.75-.22,6.91-.72,13.89-1.19,20.95-1.4,7.05-.22,13.97-.39,20.74-.54,1.15,0,2.02-.57,2.59-1.73.57-1.15.79-3.6.65-7.34-.14-3.17-.43-5.29-.86-6.37-.43-1.08-1.08-1.62-1.94-1.62-3.46.14-7.53.43-12.2.86-4.68.43-8.82,1.01-12.42,1.73-2.88.58-5.26.97-7.13,1.19-1.87.22-3.39.22-4.54,0-1.15-.22-2.05-.65-2.7-1.3s-1.19-1.54-1.62-2.7c-.72-2.02-.79-3.67-.22-4.97.57-1.3,2.09-2.73,4.54-4.32,2.88-2.02,5.65-3.27,8.32-3.78,2.66-.5,6.08-.39,10.26.32,2.73.58,6.37.94,10.91,1.08,4.54.14,8.39,0,11.56-.43,1.87-.29,5.08-.43,9.61-.43s9.32.07,14.36.22c5.04.15,9.79.36,14.26.65,4.46.29,7.56.58,9.29.86,3.46.58,5.69,1.44,6.7,2.59,1.01,1.15,1.44,2.74,1.3,4.75,0,1.44-.51,2.34-1.51,2.7-1.01.36-2.95.61-5.83.76h-9.5c-2.45,0-5.15.04-8.1.11-2.95.07-5.8.11-8.53.11-1.59,0-2.59.68-3.02,2.05-.43,1.37-.65,3.49-.65,6.37,0,3.75.25,6.16.76,7.24.5,1.08,1.55,1.62,3.13,1.62,3.02,0,6.44.07,10.26.22,3.81.14,7.31.29,10.48.43,9.07.43,16.74.83,23,1.19,6.26.36,11.77.61,16.52.76,4.75.14,9,.22,12.74.22s7.56-.07,11.45-.22c2.73-.14,4.5.18,5.29.97.79.79.68,2.27-.32,4.43ZM493.79,294.78c-.15.72-.32,1.91-.54,3.56-.22,1.66-.43,3.46-.65,5.4s-.36,3.82-.43,5.62c-.07,1.8-.11,3.21-.11,4.21.29,2.45.39,4.61.32,6.48-.07,1.87-.4,3.96-.97,6.26-.43,1.73-1.33,3.1-2.7,4.1-1.37,1.01-2.81,1.59-4.32,1.73-1.51.14-2.95-.14-4.32-.86-1.37-.72-2.34-1.94-2.92-3.67-.29-.86-.51-2.23-.65-4.1-.15-1.87-.29-3.85-.43-5.94-.15-2.09-.25-4.14-.32-6.16-.07-2.01-.11-3.6-.11-4.75-.14-3.46-1.05-6.16-2.7-8.1-1.66-1.94-3.71-3.06-6.16-3.35-11.66-1.01-23.15-1.69-34.45-2.05-11.31-.36-21.75-.43-31.32-.22-9.58.22-17.86.65-24.84,1.3-6.99.65-11.99,1.4-15.01,2.27-2.45.72-4.39,1.77-5.83,3.13-1.44,1.37-2.45,3.35-3.02,5.94-.58,2.31-1.01,5.65-1.3,10.04-.29,4.39-.29,8.89,0,13.5.14,2.45-.22,4.32-1.08,5.62s-1.91,2.02-3.13,2.16c-1.23.15-2.56-.22-4-1.08-1.44-.86-2.67-2.23-3.67-4.1-1.15-2.01-2.02-4-2.59-5.94-.58-1.94-.79-4.21-.65-6.8,0-1.3-.04-3.06-.11-5.29-.07-2.23-.14-4.5-.22-6.8-.07-2.3-.14-4.5-.22-6.59-.07-2.09-.18-3.71-.32-4.86-.43-3.74-.14-7.05.86-9.94,1.01-2.88,2.73-4.82,5.18-5.83,2.16-1.15,4.39-1.55,6.7-1.19,2.3.36,4.68,1.19,7.13,2.48.57.29,1.44.58,2.59.86,1.15.29,2.38.54,3.67.76s2.48.4,3.56.54c1.08.15,1.98.22,2.7.22,4.17-.43,8.64-.79,13.39-1.08,4.75-.29,9.72-.57,14.9-.86,1.44,0,2.23-1.15,2.38-3.46.29-2.45.29-4.54,0-6.26-.58-3.89.32-6.91,2.7-9.07,2.38-2.16,5.58-3.02,9.61-2.59,3.31.29,5.97.94,7.99,1.94,2.02,1.01,3.67,2.3,4.97,3.89,1.15,1.59,1.94,3.35,2.38,5.29.43,1.94.72,4.14.86,6.59,0,2.31.94,3.46,2.81,3.46,6.05,0,12.49.15,19.33.43,6.84.29,13.28.72,19.33,1.3,1.01,0,2.05-.14,3.13-.43,1.08-.29,2.19-.86,3.35-1.73,2.01-1.58,4.28-2.34,6.8-2.27,2.52.07,5.08,1.12,7.67,3.13,2.01,1.59,3.38,3.64,4.1,6.16.72,2.52.93,4.86.65,7.02ZM402.21,301.47c1.87,2.16,2.55,4.07,2.05,5.72-.51,1.66-1.69,3.28-3.56,4.86-2.88,2.45-5.58,4.5-8.1,6.16-2.52,1.66-5.04,3.02-7.56,4.1-2.52,1.08-5.15,1.94-7.88,2.59-2.74.65-5.69,1.19-8.86,1.62-3.17.43-5.4.54-6.7.32s-2.52-1.11-3.67-2.7c-1.73-2.16-2.13-3.78-1.19-4.86.94-1.08,3.71-2.41,8.32-4,4.17-1.44,8.32-3.38,12.42-5.83,4.1-2.45,7.81-5.18,11.12-8.21,2.88-2.45,5.25-3.74,7.13-3.89,1.87-.14,4.03,1.23,6.48,4.1ZM465.28,323.29c-.86,2.31-2.95,3.46-6.26,3.46-2.3,0-5.44-.39-9.4-1.19-3.96-.79-7.99-1.87-12.1-3.24-4.1-1.37-7.88-2.84-11.34-4.43-3.46-1.58-5.83-3.09-7.13-4.54-1.3-1.58-1.91-3.6-1.84-6.05.07-2.45.9-4.39,2.48-5.83.72-.57,1.73-1.08,3.02-1.51,1.3-.43,2.7-.65,4.21-.65s3.06.25,4.64.76c1.58.51,3.09,1.4,4.54,2.7,3.89,3.46,7.96,6.55,12.2,9.29,4.25,2.74,8.24,4.61,11.99,5.62,2.73.72,4.43,1.44,5.08,2.16.65.72.61,1.87-.11,3.46Z"/>
        <path class="cls-1" d="M519.28,542.44c-2.02,5.18-4.36,9.4-7.02,12.64-2.67,3.24-5.83,5.51-9.5,6.8s-7.88,1.59-12.64.86c-4.75-.72-10.3-2.38-16.63-4.97-4.18-1.73-9.29-3.2-15.34-4.43-6.05-1.22-12.53-2.19-19.44-2.92-1.87-.29-3.06-.18-3.56.32-.51.51-.76,1.4-.76,2.7.14,4.46.14,8.17,0,11.12-.15,2.95-.29,5-.43,6.16-.58,6.05-1.73,11.41-3.46,16.09-1.73,4.68-4.21,8.61-7.45,11.77-3.24,3.17-7.34,5.62-12.31,7.34-4.97,1.73-10.91,2.66-17.82,2.81-13.54.43-25.06-1.58-34.56-6.05-9.5-4.46-15.77-10.94-18.79-19.44-.72-1.87-.68-3.06.11-3.56.79-.5,2.12-.18,4,.97,7.63,4.47,15.37,7.34,23.22,8.64,7.85,1.3,16.38,1.15,25.6-.43,2.59-.43,4.93-1.37,7.02-2.81,2.09-1.44,3.81-3.49,5.18-6.16,1.37-2.66,2.48-6.08,3.35-10.26.86-4.17,1.44-9.29,1.73-15.34.14-2.3-.07-3.78-.65-4.43-.58-.65-1.87-.97-3.89-.97-8.64,0-17.46.32-26.46.97-9,.65-18.11,1.62-27.32,2.92-5.62.72-10.69,1.76-15.23,3.13-4.54,1.37-9.83,3.35-15.88,5.94-3.31,1.44-5.98,1.55-7.99.32-2.02-1.22-3.17-3.92-3.46-8.1,0-1.01.29-2.12.86-3.35.57-1.22,1.4-2.41,2.48-3.56,1.08-1.15,2.34-2.27,3.78-3.35,1.44-1.08,3.02-1.91,4.75-2.48,4.61-1.58,9.29-1.87,14.04-.86.72.15,1.4.25,2.05.32.65.07,1.48.11,2.48.11s2.27-.03,3.78-.11c1.51-.07,3.49-.25,5.94-.54,9.94-1.01,19.29-1.76,28.08-2.27,8.78-.5,17.57-.9,26.35-1.19,2.88-.14,4.64-.54,5.29-1.19s.97-2.12.97-4.43c0-2.45-.36-3.96-1.08-4.54-.72-.57-2.09-.86-4.1-.86-3.75,0-7.49.04-11.23.11-3.75.07-7.24.18-10.48.32-3.24.15-6.09.25-8.53.32-2.45.07-4.18.11-5.18.11-3.31.15-6.34.51-9.07,1.08-2.74.58-5.62,1.44-8.64,2.59-2.16.72-4.03.79-5.62.22-1.59-.57-2.52-1.94-2.81-4.1-.14-.72,0-1.65.43-2.81.43-1.15,1.04-2.27,1.84-3.35.79-1.08,1.65-2.05,2.59-2.92.93-.86,1.91-1.51,2.92-1.94,3.17-1.15,5.62-1.8,7.34-1.94,1.73-.14,3.89.07,6.48.65,1.58.29,3.13.51,4.64.65,1.51.15,4.21.15,8.1,0,4.46-.29,8.86-.47,13.18-.54,4.32-.07,8.78-.18,13.39-.32,2.3,0,3.74-.32,4.32-.97.57-.65.72-2.27.43-4.86-.29-2.73-.68-4.39-1.19-4.97-.51-.57-1.62-.79-3.35-.65-5.18.29-10.87.54-17.06.76-6.19.22-13.18.47-20.95.76-6.05.29-11.27-.47-15.66-2.27-4.39-1.8-6.8-4.07-7.24-6.8-.29-1.58-.07-2.66.65-3.24.72-.57,2.52-.72,5.4-.43,10.22,1.3,20.48,1.87,30.78,1.73,10.29-.14,19.98-.79,29.05-1.94,9.07-1.15,17.17-2.63,24.3-4.43,7.13-1.8,12.78-3.71,16.96-5.72,4.46-2.3,7.85-3.53,10.15-3.67,2.3-.14,4.75.43,7.34,1.73,2.01,1.01,3.63,2.27,4.86,3.78,1.22,1.51,1.84,3.02,1.84,4.54s-.65,2.95-1.94,4.32c-1.3,1.37-3.31,2.41-6.05,3.13-5.04,1.15-10.08,2.2-15.12,3.13-5.04.94-10.73,1.77-17.06,2.48-1.59.14-2.59.54-3.02,1.19-.43.65-.58,2.13-.43,4.43.14,3.02.43,5,.86,5.94.43.94,1.01,1.4,1.73,1.4,4.03,0,8.03.04,11.99.11,3.96.07,7.63.18,11.02.32,3.38.15,6.41.32,9.07.54,2.66.22,4.71.4,6.16.54,2.59.43,4.32,1.01,5.18,1.73.86.72,1.22,2.09,1.08,4.1-.14,1.15-.79,2.13-1.94,2.92-1.15.79-3.1,1.33-5.83,1.62-.58,0-2.02.04-4.32.11-2.31.07-5.04.11-8.21.11h-20.09c-2.16,0-3.53.29-4.1.86s-.79,2.09-.65,4.54c.14,2.3.54,3.85,1.19,4.64.65.79,2.19,1.19,4.64,1.19,6.48.14,13.28.4,20.41.76,7.13.36,14.58.76,22.36,1.19,1.87.15,4.39.25,7.56.32,3.17.07,6.44.11,9.83.11s6.66-.03,9.83-.11c3.17-.07,5.62-.18,7.34-.32,1.87-.14,3.06.04,3.56.54.5.51.39,1.62-.32,3.35Z"/>
      </g>
    </g>
  </g>
</svg>