<?xml version="1.0" encoding="UTF-8"?>
<svg id="Layer_2" data-name="Layer 2" xmlns="http://www.w3.org/2000/svg" viewBox="0 0 900 900">
  <defs>
    <style>
      .cls-1 {
        fill: #469c45;
      }

      .cls-2 {
        fill: #be1e2d;
      }

      .cls-3 {
        fill: #fff3c7;
      }
    </style>
  </defs>
  <g id="Layer_1-2" data-name="Layer 1">
    <g id="ficon_kokedamas" data-name="ficon kokedamas">
      <circle class="cls-1" cx="450" cy="450" r="450"/>
      <g>
        <path class="cls-3" d="M328.13,66.76c-4.22,4.23-7.69,8.68-10.4,13.35-2.71,4.68-4.97,9.33-6.79,13.97l-6.13-.58c.42-3.19.87-5.88,1.33-8.05.46-2.17,1.08-4.48,1.86-6.93-1.71,1.86-3.32,3.67-4.82,5.42-1.5,1.76-2.98,3.7-4.44,5.82-1.46,2.13-2.97,4.54-4.54,7.24-1.57,2.7-3.33,5.95-5.29,9.74,1.37,2.86,4.07,5.8,8.11,8.81,4.04,3.01,8.66,5.81,13.86,8.4,5.2,2.59,10.58,4.8,16.14,6.63,5.56,1.83,10.53,3,14.93,3.5l-9.02,15.82c-5.44-1.3-10.77-3.01-16.01-5.13-5.24-2.11-9.97-4.34-14.21-6.67-4.24-2.33-7.83-4.75-10.77-7.24s-4.92-4.8-5.94-6.92c-1.37-2.86-1.37-5.32-.02-7.4l-1.48-1.05c-1.28,1.39-2.36,3.01-3.24,4.86-.87,1.85-1.52,4.11-1.93,6.77-.42,2.67-.62,5.79-.6,9.36.01,3.57.24,7.85.67,12.84.49,5.1.75,9.27.8,12.49.05,3.23-.05,5.81-.3,7.75-.24,1.94-.64,3.36-1.18,4.27-.54.91-1.18,1.54-1.92,1.89-1.48.71-3.14.91-4.97.62-1.83-.29-3.63-.87-5.4-1.71-1.77-.84-3.33-1.79-4.67-2.84-1.35-1.05-2.25-2.05-2.7-3-.56-1.16-.98-2.26-1.28-3.29-.3-1.03-.41-2.21-.33-3.55.08-1.33.3-2.91.68-4.71.37-1.8.95-4.06,1.74-6.78,1.01-3.6,1.81-7.23,2.4-10.9.59-3.66.69-7.67.3-12.04-.39-4.36-1.4-9.18-3-14.46-1.61-5.28-4.11-11.33-7.5-18.16l17.4-13.38c1.15,3.22,2.14,6.26,2.98,9.11.84,2.85,1.51,5.68,2.01,8.5.5,2.82.93,5.77,1.3,8.84.36,3.08.64,6.45.84,10.13,2.99-8.45,5.79-15.7,8.42-21.77,2.63-6.06,5.3-11.7,8.02-16.9,1.68-3.27,3.56-6.22,5.63-8.83,2.07-2.61,4-4.35,5.8-5.21,3.39-1.62,11.28-1.16,23.67,1.37Z"/>
        <path class="cls-3" d="M453.19,64.7c.64,5.48.06,10.92-1.73,16.32-1.79,5.41-4.33,10.58-7.59,15.5-3.27,4.93-7.04,9.56-11.32,13.89-4.28,4.34-8.59,8.15-12.93,11.43-4.34,3.28-8.53,5.92-12.54,7.92-4.02,2-7.37,3.16-10.05,3.47-2.33.27-5.44-.34-9.34-1.84-3.89-1.5-7.71-3.56-11.44-6.2-3.73-2.63-7.03-5.62-9.9-8.95-2.87-3.33-4.5-6.68-4.89-10.06-.61-5.25-.1-10.8,1.52-16.66,1.62-5.86,4.2-11.59,7.75-17.2,3.54-5.61,7.86-10.86,12.96-15.77,5.1-4.9,10.82-9.08,17.15-12.54l14.44,3.82,22.2-7.19c1.05-.12,2.37.34,3.97,1.4,1.6,1.05,3.2,2.61,4.79,4.67,1.6,2.06,3.04,4.61,4.34,7.65,1.3,3.04,2.17,6.48,2.62,10.33ZM430.47,73.55c-.24-2.1-.58-4.01-1.02-5.73-.44-1.72-1.05-3.42-1.83-5.1-.79-1.68-1.79-3.45-3.01-5.32-1.22-1.87-2.8-3.99-4.73-6.36l-5.16,1.31c-6.59,4.31-11.99,8.66-16.2,13.05-4.22,4.39-7.52,9-9.91,13.82-2.39,4.83-3.9,9.9-4.52,15.23-.62,5.33-.57,11.08.15,17.26.09.82.3,1.59.62,2.32.32.73.95,1.57,1.89,2.53.94.95,2.19,2.05,3.75,3.29,1.56,1.24,3.63,2.77,6.2,4.59,4.53-3.72,8.95-7.6,13.27-11.64,4.31-4.04,8.08-8.23,11.3-12.56,3.22-4.33,5.69-8.72,7.42-13.18,1.73-4.45,2.33-8.95,1.8-13.5Z"/>
        <path class="cls-3" d="M587.36,72.09c-5.92.77-11.39,2.18-16.38,4.23-5,2.05-9.63,4.36-13.9,6.92l-4.5-4.2c2.29-2.27,4.27-4.12,5.96-5.56,1.69-1.44,3.59-2.89,5.7-4.36-2.49.43-4.87.88-7.13,1.35-2.26.48-4.62,1.11-7.07,1.91-2.45.8-5.12,1.78-8.02,2.96-2.89,1.18-6.27,2.68-10.14,4.49-.66,3.1-.32,7.07,1.05,11.92,1.36,4.85,3.31,9.89,5.85,15.11,2.54,5.22,5.46,10.26,8.74,15.1,3.28,4.84,6.51,8.8,9.7,11.88l-16.8,7.02c-3.51-4.35-6.69-8.96-9.55-13.83-2.86-4.87-5.25-9.52-7.18-13.96-1.93-4.43-3.3-8.54-4.11-12.31-.81-3.77-.97-6.8-.48-9.1.66-3.1,2.16-5.05,4.5-5.88l-.53-1.73c-1.87.32-3.71.95-5.53,1.88-1.82.93-3.71,2.33-5.67,4.19-1.96,1.86-4.02,4.21-6.19,7.05-2.17,2.84-4.6,6.37-7.31,10.58-2.73,4.34-5.06,7.8-6.99,10.38-1.94,2.59-3.59,4.57-4.97,5.96-1.38,1.39-2.56,2.27-3.54,2.66-.98.39-1.88.5-2.68.33-1.61-.35-3.05-1.19-4.32-2.54-1.27-1.35-2.35-2.9-3.23-4.65-.89-1.75-1.54-3.45-1.97-5.1-.43-1.65-.53-2.99-.31-4.03.27-1.26.6-2.39.99-3.39.39-.99,1.03-2,1.91-3.01.87-1.01,2.01-2.12,3.41-3.32,1.4-1.2,3.23-2.64,5.51-4.31,3-2.24,5.85-4.62,8.55-7.17,2.7-2.54,5.23-5.66,7.58-9.36,2.35-3.7,4.5-8.13,6.44-13.29,1.94-5.16,3.66-11.48,5.14-18.97l21.95.02c-1.06,3.26-2.12,6.27-3.19,9.04-1.08,2.77-2.27,5.43-3.59,7.96-1.33,2.54-2.78,5.14-4.37,7.79-1.59,2.66-3.43,5.51-5.52,8.54,7.52-4.87,14.17-8.9,19.96-12.11,5.78-3.2,11.34-6.03,16.67-8.49,3.33-1.56,6.62-2.75,9.85-3.56,3.23-.81,5.82-1,7.78-.58,3.67.78,9.64,5.96,17.91,15.53Z"/>
        <path class="cls-3" d="M690.09,134.8c-6.75-5.17-12.99-9.59-18.72-13.26-5.73-3.67-10.92-6.77-15.56-9.3-5.16,2.64-9.95,5.3-14.38,7.97-4.43,2.67-8.86,5.41-13.29,8.21,1.85-.12,3.38-.22,4.6-.3,1.22-.09,2.52-.26,3.91-.52,7.23,3.68,13.37,6.91,18.41,9.68,5.04,2.77,8.32,4.61,9.82,5.52l7.68,4.64-15.59,6.41c-5.78-4.73-11.31-8.79-16.59-12.18-5.28-3.4-11-6.47-17.15-9.23-2.84,1.98-5.39,3.87-7.64,5.67-2.25,1.79-4.68,3.83-7.28,6.09l-14.82.71c11.76,5.05,22.15,10.19,31.18,15.44,9.03,5.25,17.12,10.58,24.26,16l-13.91,9.07c-8.29-6.93-17.65-13.5-28.07-19.73-10.43-6.23-20.78-11.49-31.07-15.79,2.5-1.64,4.61-3.04,6.34-4.19,1.72-1.15,3.16-2.17,4.31-3.05,1.15-.88,2.11-1.67,2.88-2.38.76-.7,1.46-1.34,2.09-1.93,6.7-6.78,13.13-12.77,19.28-17.96,6.15-5.19,12.22-9.68,18.21-13.47,2.81.33,5.58.63,8.3.9,2.71.27,6.38.56,10.98.88-2.07-1.11-4.91-2.48-8.51-4.12-3.61-1.63-7.75-3.45-12.43-5.46l13.84-6.24c8.1,3.38,15.28,6.59,21.54,9.62,6.26,3.03,11.88,5.91,16.88,8.65,4.99,2.74,9.49,5.39,13.5,7.95,4.01,2.56,7.73,5.08,11.16,7.56l-14.15,8.11Z"/>
        <path class="cls-3" d="M750.88,246.74c-4.43,3.85-9.43,6.19-15.02,7.01-5.59.82-11.07.69-16.44-.39-5.37-1.08-10.27-2.77-14.68-5.07-4.42-2.3-7.66-4.65-9.74-7.04-2.85-3.27-5.47-11.73-7.85-25.37-4.54-.56-8.09-1.12-10.67-1.67-2.58-.55-4.49-1.31-5.71-2.27-1.22-.96-1.95-2.19-2.18-3.71-.23-1.51-.22-3.47.03-5.86.36-4.05.96-6.67,1.79-7.86.83-1.19,2.17-1.97,4.03-2.34,15.34-2.93,29.2-6.4,41.57-10.41,12.38-4.01,23-8.78,31.87-14.32l4.67,13.67,16.71,10.89c-1.2,8.98-2.41,16.53-3.62,22.64-1.21,6.11-2.54,11.2-3.99,15.25-1.45,4.06-3.05,7.4-4.81,10.02-1.76,2.62-3.75,4.9-5.96,6.82ZM736.74,232.91c3.98-3.47,7.24-9.14,9.79-17.04,2.54-7.89,4.46-17.53,5.74-28.92-8.8,4.55-18.35,8.63-28.66,12.24-10.31,3.61-20.82,6.34-31.5,8.17.92,4.64,2.37,9.06,4.32,13.27,1.95,4.21,3.86,7.38,5.71,9.5,1.92,2.21,4.32,4.02,7.17,5.42,2.85,1.4,5.89,2.3,9.11,2.69,3.21.39,6.43.15,9.65-.7,3.22-.86,6.11-2.4,8.68-4.64Z"/>
        <path class="cls-3" d="M754.87,343.59c3.66-3.92,7.29-7.39,10.9-10.39,3.61-3.01,7.9-5.99,12.88-8.96-.45-3.91-1.3-7.67-2.58-11.27-1.27-3.61-3.15-7.94-5.64-13-7.99-2.12-14.65-4.05-19.97-5.8-5.33-1.75-9.64-3.38-12.93-4.87-3.29-1.5-5.71-2.83-7.26-4.01-1.55-1.18-2.51-2.19-2.89-3.05-1.52-3.44.89-6.55,7.22-9.35,2.04-.9,3.97-1.46,5.79-1.69,1.82-.23,3.83.1,6.02,1,2.19.89,4.72,2.34,7.59,4.34,2.87,2,6.38,4.78,10.51,8.34,2.02,1.67,3.72,2.91,5.1,3.71,1.38.8,2.92,1.53,4.62,2.19,5.11,1.98,10.15,3.66,15.12,5.05,4.97,1.39,9.71,2.45,14.19,3.16,4.48.71,8.58,1.05,12.28,1.02,3.7-.04,6.89-.51,9.56-1.44,2.3,3.47,4.54,6.65,6.71,9.54,2.17,2.89,4.7,6,7.59,9.35-4.24.85-8.8,2.06-13.69,3.64s-9.36,3.27-13.44,5.07c-6.44,2.85-12.02,5.53-16.74,8.07-4.72,2.53-8.88,5.08-12.5,7.64-3.62,2.56-6.82,5.19-9.6,7.89-2.78,2.7-5.4,5.62-7.86,8.77l-11.03-14.95ZM818.86,307.24c-6.56-.05-13.2-.49-19.91-1.31-6.71-.82-13.64-2.34-20.78-4.58,1.8,2.92,3.38,5.75,4.72,8.5,1.34,2.74,2.73,6.04,4.18,9.89l7.25-3.2c3.11-1.37,6.99-2.96,11.65-4.76,4.65-1.8,8.95-3.32,12.9-4.54Z"/>
        <path class="cls-3" d="M844.45,490.85c-3.56-2.62-8.91-4.79-16.05-6.51s-15.88-2.29-26.18-1.71c-3.87.22-7.78.67-11.73,1.36-3.96.69-7.84,1.67-11.65,2.94l-5.04-17.7c5.17-2.17,10.91-3.43,17.24-3.78,5.62-.31,11.65-.21,18.09.31,6.43.52,13.23,1.76,20.39,3.71-3.86-1.67-8-3.78-12.43-6.36-4.43-2.57-8.85-5.35-13.25-8.34-4.4-2.99-8.6-6.07-12.59-9.26-4-3.19-7.55-6.22-10.64-9.1-3.1-2.88-5.6-5.51-7.49-7.87-1.89-2.36-2.88-4.19-2.95-5.48-.09-1.52.98-2.99,3.19-4.41,2.21-1.42,5.2-2.67,8.96-3.76,3.76-1.09,8.08-2.04,12.97-2.84,4.89-.8,9.91-1.35,15.07-1.63,3.98-.22,7.67-.4,11.08-.53,3.4-.13,7.45-.21,12.15-.24-7.04-1.84-13.34-3.69-18.91-5.55-5.57-1.87-10.85-3.89-15.85-6.08-5-2.19-9.93-4.71-14.79-7.55-4.86-2.84-10.04-6.11-15.53-9.8l4.68-17.18c5.49,5.8,11.47,11.23,17.92,16.27,6.45,5.04,13.13,9.4,20.03,13.07,6.9,3.67,13.91,6.6,21.03,8.79,7.11,2.19,14.14,3.38,21.09,3.58l5.64,22.07c-2.14-.47-4.66-.86-7.56-1.16-2.9-.31-5.94-.55-9.12-.72s-6.36-.29-9.54-.35c-3.18-.06-6.11-.01-8.81.14-6.21.35-11.36.75-15.44,1.22-4.09.46-7.32.96-9.7,1.51-2.38.54-4.02,1.13-4.92,1.77-.91.64-1.34,1.25-1.31,1.83.09,1.64,1.79,4.16,5.09,7.56,3.3,3.4,7.77,7.08,13.4,11.06,5.63,3.97,12.22,7.89,19.78,11.76,7.56,3.87,15.64,7.09,24.25,9.66,2.03.59,3.62,1.3,4.79,2.11,1.16.82,1.79,2.04,1.88,3.68.07,1.17-.7,2.77-2.29,4.8-1.59,2.03-3.84,4.3-6.76,6.81-2.25,1.77-3.9,2.74-4.95,2.92-1.05.17-2.13-.18-3.23-1.05Z"/>
        <path class="cls-3" d="M749.73,570.09c5.33-.56,10.35-.79,15.04-.68,4.7.1,9.9.67,15.6,1.7,2.23-3.24,4.05-6.64,5.46-10.19,1.41-3.56,2.83-8.06,4.28-13.51-4.64-6.84-8.39-12.67-11.25-17.49-2.87-4.82-5.05-8.88-6.55-12.17-1.5-3.29-2.44-5.89-2.84-7.79-.39-1.9-.45-3.3-.17-4.2,1.11-3.59,4.97-4.36,11.59-2.31,2.13.66,3.96,1.5,5.48,2.53,1.52,1.03,2.82,2.59,3.89,4.71,1.06,2.11,2.02,4.87,2.87,8.26.85,3.39,1.67,7.79,2.45,13.2.42,2.59.89,4.64,1.41,6.15.52,1.51,1.2,3.07,2.05,4.69,2.55,4.84,5.25,9.42,8.08,13.75,2.84,4.32,5.71,8.22,8.63,11.7,2.91,3.48,5.78,6.43,8.59,8.83,2.82,2.41,5.53,4.14,8.15,5.2-.54,4.13-.95,8-1.2,11.61-.26,3.6-.4,7.62-.41,12.03-3.76-2.15-8-4.23-12.71-6.25s-9.21-3.68-13.47-5c-6.72-2.08-12.7-3.72-17.92-4.91-5.22-1.19-10.04-2.01-14.44-2.45-4.41-.44-8.55-.56-12.42-.35-3.87.21-7.77.69-11.69,1.45l1.5-18.51ZM821.86,584.71c-4.92-4.35-9.64-9.04-14.16-14.06-4.52-5.03-8.75-10.73-12.66-17.1-.56,3.39-1.23,6.56-2.03,9.51-.79,2.95-1.91,6.35-3.35,10.2l7.56,2.35c3.25,1.01,7.22,2.36,11.92,4.06,4.69,1.7,8.93,3.38,12.71,5.05Z"/>
        <path class="cls-3" d="M741.69,708.35c5.08-3.29,9.27-6.07,12.55-8.34,3.28-2.27,6-4.26,8.15-5.96,2.15-1.71,3.89-3.28,5.21-4.72,1.31-1.44,2.52-2.93,3.61-4.45,2.32-3.25,3.68-6.78,4.1-10.59.42-3.81.02-7.81-1.18-11.98-1.33.05-2.65.23-3.95.53-1.29.3-2.91.84-4.84,1.63-1.93.78-4.29,1.87-7.09,3.27-2.8,1.39-6.36,3.2-10.7,5.44-4.87,2.58-8.95,4.61-12.23,6.08-3.29,1.47-6.06,2.48-8.33,3.03-2.26.55-4.13.73-5.58.55-1.46-.18-2.76-.67-3.91-1.49-2.77-1.98-4.81-5.13-6.12-9.45-1.31-4.32-1.89-9.17-1.73-14.53.16-5.37,1.08-10.91,2.78-16.61,1.7-5.71,4.21-10.91,7.55-15.58,1.57-2.2,3.46-4.45,5.68-6.75,2.22-2.31,4.66-4.56,7.32-6.77,2.66-2.21,5.44-4.29,8.36-6.25,2.91-1.96,5.84-3.69,8.79-5.19l5.34,16.14c-6.64,4.05-12.47,8.03-17.5,11.94-5.02,3.91-8.9,7.77-11.63,11.59-5.66,7.93-7.22,16.68-4.7,26.27,6.63-2.62,12.79-5.35,18.5-8.2,5.71-2.85,10.88-5.5,15.51-7.96,3.08-1.69,5.79-3.01,8.11-3.94,2.32-.94,4.45-1.54,6.38-1.82,1.93-.28,3.64-.21,5.15.21,1.5.42,3.01,1.18,4.54,2.27,2.01,1.43,3.57,4.09,4.68,7.99,1.11,3.89,1.61,8.29,1.51,13.19-.11,4.89-.9,9.99-2.37,15.28-1.47,5.29-3.71,10.04-6.71,14.24-4.02,5.63-8.41,10.57-13.17,14.82-4.76,4.24-10.77,8.32-18.02,12.22l-4.08-16.1Z"/>
      </g>
      <circle class="cls-3" cx="450" cy="450" r="288"/>
      <g>
        <path class="cls-2" d="M552.6,297.01c-.86,2.16-2.09,4.43-3.67,6.8-1.59,2.38-3.02,4.14-4.32,5.29-3.75,3.6-7.71,5.62-11.88,6.05-4.18.43-9.65-1.01-16.42-4.32-1.87-.86-4.9-1.73-9.07-2.59-4.18-.86-9-1.73-14.47-2.59-1.59-.29-2.77-.22-3.56.22-.79.43-1.19.79-1.19,1.08,0,.43-.4.97-1.19,1.62-.79.65-1.7,1.26-2.7,1.84-1.01.58-2.05,1.01-3.13,1.3-1.08.29-2.05.43-2.92.43-2.45-.29-4.68-1.19-6.7-2.7-2.02-1.51-2.95-2.99-2.81-4.43,0-.43-.25-.9-.76-1.4-.51-.5-1.62-.83-3.35-.97-5.76-.29-11.77-.54-18.04-.76-6.26-.22-12.56-.18-18.9.11-1.44,0-2.16.72-2.16,2.16,0,.29-.04.65-.11,1.08-.07.43-.11.79-.11,1.08-.29,1.73-1.26,3.1-2.92,4.1-1.66,1.01-3.49,1.62-5.51,1.84-2.02.22-3.96,0-5.83-.65-1.87-.65-3.1-1.76-3.67-3.35-.29-.43-.47-1.01-.54-1.73-.07-.72-.25-1.3-.54-1.73-.29-.57-.58-.97-.86-1.19-.29-.22-.79-.32-1.51-.32-3.31.29-6.77.58-10.37.86-3.6.29-7.63.58-12.1.86-2.02.14-4.36.51-7.02,1.08-2.67.58-5.22,1.23-7.67,1.94-2.45.72-4.61,1.44-6.48,2.16-1.87.72-3.1,1.3-3.67,1.73-1.73,1.15-3.31,1.66-4.75,1.51-1.44-.14-2.56-.65-3.35-1.51-.79-.86-1.22-1.98-1.29-3.35-.07-1.37.32-2.7,1.19-4,2.3-3.46,4.39-6.19,6.26-8.21,1.87-2.01,3.56-3.53,5.08-4.54,1.51-1.01,2.81-1.58,3.89-1.73,1.08-.14,1.84,0,2.27.43.86.72,2.01,1.08,3.46,1.08s4.46-.07,9.07-.22c4.61-.14,8.93-.29,12.96-.43,4.03-.14,7.85-.22,11.45-.22,1.01,0,1.62-.18,1.84-.54.22-.36.32-.9.32-1.62.14-2.3.39-4.5.76-6.59.36-2.08.76-3.56,1.19-4.43,1.15-2.59,3.03-4.1,5.62-4.54,2.59-.43,6.41.79,11.45,3.67,1.73,1.01,2.81,2.02,3.24,3.02.43,1.01.57,2.67.43,4.97v1.4c0,.51-.07.97-.22,1.4-.29.86-.29,1.51,0,1.94.29.43,1.01.65,2.16.65,6.62-.14,12.89-.25,18.79-.32,5.9-.07,12.24-.03,19.01.11,1.44,0,2.16-.72,2.16-2.16v-7.56c0-1.73.39-3.27,1.19-4.64.79-1.37,1.98-2.34,3.56-2.92,1.3-.29,3.31-.18,6.05.32,2.73.51,4.75,1.26,6.05,2.27,2.02,1.59,3.31,2.99,3.89,4.21.57,1.23.72,2.77.43,4.64-.14.72-.22,1.3-.22,1.73s-.07,1.08-.22,1.94c-.29,1.59.43,2.38,2.16,2.38h5.83c9.5.14,18.43.4,26.78.76,8.35.36,16.49.9,24.41,1.62,2.02.29,3.24.68,3.67,1.19.43.51.29,1.62-.43,3.35ZM529.7,351.44c-.72,1.87-2.88,2.38-6.48,1.51-5.47-1.44-10.98-3.02-16.52-4.75-5.54-1.73-10.91-3.6-16.09-5.62-.58-.29-1.15-.29-1.73,0-2.88,1.59-6.05,3.02-9.5,4.32-3.46,1.3-7.99,2.52-13.61,3.67-2.02.43-4.61.86-7.78,1.3-3.17.43-6.48.72-9.94.86-3.46.15-6.84.11-10.15-.11-3.31-.22-6.12-.68-8.42-1.4-1.01-.29-3.42-.65-7.24-1.08-3.82-.43-7.96-.79-12.42-1.08-4.47-.29-8.75-.5-12.85-.65-4.1-.14-6.95-.14-8.53,0-3.02.29-5.47.43-7.34.43s-3.38-.25-4.54-.76c-1.15-.5-2.05-1.19-2.7-2.05-.65-.86-1.19-2.01-1.62-3.46-.72-2.02-.47-4.18.76-6.48,1.22-2.3,3.49-3.74,6.8-4.32,5.18-.86,9.4-1.65,12.64-2.38,3.24-.72,6.51-1.65,9.83-2.81,1.87-.57,4-1.4,6.37-2.48s4.79-2.27,7.24-3.56c2.45-1.3,4.89-2.66,7.34-4.1,2.45-1.44,4.68-2.88,6.7-4.32,4.89-3.46,8.75-5.29,11.55-5.51,2.81-.22,5.22.69,7.24,2.7,2.16,2.31,3.06,4.64,2.7,7.02-.36,2.38-1.4,4.07-3.13,5.08-3.6,2.16-7.49,4.32-11.66,6.48-4.18,2.16-9,4.32-14.47,6.48-1.15.43-1.76.9-1.84,1.4-.07.51.11.83.54.97,1.3.43,3.35.83,6.16,1.19,2.81.36,5.87.65,9.18.86,3.31.22,6.62.36,9.94.43,3.31.07,6.05-.03,8.21-.32,3.17-.29,5.79-.57,7.88-.86,2.09-.29,3.92-.79,5.51-1.51,1.58-.72,2.45-1.3,2.59-1.73.14-.43-.58-1.15-2.16-2.16-.43-.29-.97-.57-1.62-.86-.65-.29-1.26-.57-1.84-.86-2.02-1.15-3.13-2.77-3.35-4.86-.22-2.09.54-4.35,2.27-6.8,1.44-2.02,3.46-3.38,6.05-4.1,2.59-.72,5.11-.29,7.56,1.3,2.16,1.44,4.97,3.17,8.42,5.18,3.46,2.02,7.31,4.18,11.56,6.48,4.25,2.31,8.82,4.79,13.72,7.45,4.89,2.67,9.86,5.37,14.9,8.1,2.01,1.15,3.31,2.48,3.89,4,.57,1.51.57,2.77,0,3.78ZM512.21,370.66c-.14.72-.32,2.16-.54,4.32-.22,2.16-.43,4.54-.65,7.13s-.4,5.15-.54,7.67c-.15,2.52-.29,4.5-.43,5.94-.14,2.02-.76,3.75-1.84,5.18-1.08,1.44-2.34,2.63-3.78,3.56-1.44.94-2.99,1.51-4.64,1.73-1.66.22-3.13.11-4.43-.32-5.18-2.01-10.8-3.24-16.85-3.67-6.48-.43-15.59-.76-27.32-.97-11.74-.22-25.24-.18-40.5.11-2.02,0-3.46.51-4.32,1.51-1.44,1.59-3.06,2.84-4.86,3.78-1.8.93-3.28,1.33-4.43,1.19-3.75-.29-6.37-1.3-7.88-3.02-1.51-1.73-2.27-4.25-2.27-7.56-.15-7.34-.32-13.46-.54-18.36-.22-4.89-.61-9-1.19-12.31-.29-2.01.36-3.89,1.94-5.62,1.58-1.73,3.67-2.59,6.26-2.59,1.15,0,2.45.11,3.89.32,1.44.22,2.59.54,3.46.97.57.29,1.04.54,1.4.76.36.22.76.32,1.19.32,4.03,0,9.65-.03,16.85-.11,7.2-.07,14.87-.11,23-.11s16.2.07,24.19.22c7.99.15,14.8.29,20.41.43.87,0,1.91-.11,3.13-.32,1.22-.22,2.41-.54,3.56-.97,2.45-1.01,5.15-1.3,8.1-.86,2.95.43,5.29,1.3,7.02,2.59,1.58,1.15,2.52,2.3,2.81,3.46.29,1.15.22,3.02-.22,5.62ZM489.96,378.66c-.14-2.45-.58-3.92-1.29-4.43-.72-.5-2.52-.9-5.4-1.19-2.16-.14-6.09-.25-11.77-.32-5.69-.07-12.1-.14-19.22-.22-7.13-.07-14.51-.07-22.14,0-7.63.07-14.47.18-20.52.32-1.15,0-1.87.58-2.16,1.73-.29,1.73-.51,3.53-.65,5.4-.14,1.87-.21,4.18-.21,6.91,0,1.44.72,2.16,2.16,2.16,7.78-.14,15.41-.22,22.9-.22s14.65.04,21.49.11c6.84.07,13.18.22,19.01.43s10.98.4,15.44.54c.72,0,1.33-.93,1.84-2.81.5-1.87.68-4.68.54-8.42Z"/>
        <path class="cls-2" d="M551.3,596.71c-1.59,2.59-4.1,5.37-7.56,8.32-3.46,2.95-7.13,5.51-11.02,7.67-2.59,1.44-4.9,2.48-6.91,3.13-2.02.65-4.29.83-6.8.54-2.52-.29-5.54-1.04-9.07-2.27-3.53-1.22-8.17-2.99-13.93-5.29-8.79-3.6-18.04-6.01-27.76-7.24-9.72-1.22-20.56-1.98-32.51-2.27-4.75,0-9.07.07-12.96.22-3.89.15-7.81.43-11.77.86-3.96.43-8.14,1.05-12.53,1.84-4.39.79-9.47,1.77-15.23,2.92-2.74.58-5.72,1.33-8.96,2.27-3.24.94-6.16,1.76-8.75,2.48-5.04,1.73-8.68,2.13-10.91,1.19-2.23-.93-3.35-3.49-3.35-7.67,0-3.02.72-5.47,2.16-7.34,1.44-1.87,3.81-3.74,7.13-5.62,2.88-1.73,5.22-2.73,7.02-3.02,1.8-.29,3.49-.29,5.08,0,1.29.29,2.81.54,4.54.76,1.73.22,3.49.43,5.29.65,1.8.22,3.49.36,5.08.43,1.58.07,2.73.04,3.46-.11,5.33-.86,11.34-1.58,18.04-2.16,6.7-.57,14.51-1.01,23.44-1.3,1.44,0,2.16-.65,2.16-1.94.29-4.17.54-8.5.76-12.96.22-4.46.39-8.86.54-13.18,0-1.44-.72-2.16-2.16-2.16-9.94.29-18.29.76-25.05,1.4-6.77.65-11.02,1.26-12.74,1.84-3.75,1.15-6.52,1.73-8.32,1.73s-3.49-.57-5.08-1.73c-3.75-2.73-4.61-5.9-2.59-9.5,1.3-2.16,2.45-3.63,3.46-4.43,1-.79,2.66-1.47,4.97-2.05,1.73-.43,3.17-.76,4.32-.97,1.15-.22,2.23-.32,3.24-.32s2.01.07,3.02.22c1.01.15,2.23.36,3.67.65,1.01.29,1.94.47,2.81.54.86.07,1.87.11,3.02.11s2.55-.03,4.21-.11c1.65-.07,3.85-.25,6.59-.54,1.15-.14,3.09-.22,5.83-.22h8.86c1.44,0,2.16-.72,2.16-2.16-.15-3.46-.25-6.95-.32-10.48-.07-3.53-.25-7.02-.54-10.48,0-1.3-.72-1.94-2.16-1.94-4.61-.14-8.82-.25-12.64-.32-3.82-.07-6.23-.03-7.24.11-3.17.15-5.94.32-8.32.54-2.38.22-4.54.47-6.48.76-1.94.29-3.85.69-5.72,1.19-1.87.51-3.96,1.05-6.26,1.62-4.61,1.3-7.81,1.4-9.61.32-1.8-1.08-2.56-2.62-2.27-4.64.29-2.3.79-4.07,1.51-5.29.72-1.22,2.02-2.7,3.89-4.43,3.89-3.74,7.05-5.79,9.5-6.16,2.45-.36,4.82-.11,7.13.76,2.88,1.15,5.4,1.91,7.56,2.27,2.16.36,4.82.47,7.99.32,7.05-.14,13.39-.25,19.01-.32,5.62-.07,10.98-.03,16.09.11,5.11.15,10.26.32,15.45.54,5.18.22,10.87.54,17.06.97,8.35.58,15.41.94,21.17,1.08,5.76.15,10.58.15,14.47,0,3.89,0,5.62,2.31,5.18,6.91-.14,1.59-.9,2.81-2.27,3.67-1.37.86-3.71,1.44-7.02,1.73-1.15.14-3.28.25-6.37.32-3.1.07-6.84.07-11.23,0-4.39-.07-9.29-.18-14.69-.32-5.4-.14-10.98-.36-16.74-.65-1.44,0-2.16.72-2.16,2.16-.15,3.31-.29,6.62-.43,9.94-.15,3.31-.29,6.63-.43,9.94,0,1.44.72,2.16,2.16,2.16,4.75.14,9.5.29,14.26.43,4.75.15,9.18.29,13.28.43,4.1.15,7.81.36,11.12.65,3.31.29,5.9.58,7.78.86,1.3.29,2.34.94,3.13,1.94.79,1.01,1.04,2.31.76,3.89-.29,2.45-1.05,4.1-2.27,4.97-1.23.86-4.07,1.22-8.53,1.08-7.2-.29-14.18-.54-20.95-.76-6.77-.22-13.18-.4-19.22-.54-1.44,0-2.16.72-2.16,2.16-.15,4.32-.25,8.68-.32,13.07-.07,4.39-.04,8.75.11,13.07,0,1.44.72,2.16,2.16,2.16,7.05,0,13.5.14,19.33.43,5.83.29,11.48.72,16.96,1.3,5.18.43,10.48.86,15.88,1.3,5.4.43,10.44.79,15.12,1.08,4.68.29,8.78.51,12.31.65,3.53.14,5.94.22,7.24.22,2.45-.14,4,.36,4.64,1.51.65,1.15.4,2.67-.76,4.54ZM500.76,576.41c-2.45,2.02-5.8,3.35-10.04,4-4.25.65-8.96.68-14.15.11-2.02-.29-3.21-.97-3.56-2.05-.36-1.08.25-2.05,1.84-2.92,1.44-.72,3.09-1.76,4.97-3.13,1.87-1.37,3.17-2.41,3.89-3.13,2.88-3.17,5.15-5.08,6.8-5.72,1.65-.65,3.71-.32,6.16.97,3.74,1.87,5.76,4,6.05,6.37.29,2.38-.36,4.21-1.94,5.51Z"/>
      </g>
    </g>
  </g>
</svg>